<mxfile host="app.diagrams.net" modified="2024-06-26T14:32:13.459Z" agent="Mozilla/5.0 (Windows NT 10.0; Win64; x64) AppleWebKit/537.36 (KHTML, like Gecko) Chrome/126.0.0.0 Safari/537.36" etag="IbijLsds9NSNBk7jvult" version="24.6.2" type="device">
  <diagram name="Страница — 1" id="ZPAMAd_U7TaTFGGUgjcI">
    <mxGraphModel dx="3500" dy="2087" grid="0" gridSize="10" guides="1" tooltips="1" connect="1" arrows="1" fold="1" page="1" pageScale="1" pageWidth="3300" pageHeight="2339" math="0" shadow="0">
      <root>
        <mxCell id="0" />
        <mxCell id="1" parent="0" />
        <mxCell id="5uYzXn4WJ4j_uTU6qq_i-185" value="" style="group;fontFamily=icocpeur;" parent="1" vertex="1" connectable="0">
          <mxGeometry x="190" y="60" width="9460" height="6750" as="geometry" />
        </mxCell>
        <mxCell id="5uYzXn4WJ4j_uTU6qq_i-123" value="" style="group;rotation=0;movable=1;resizable=1;rotatable=1;deletable=1;editable=1;locked=0;connectable=1;fontFamily=icocpeur;fontSize=57;" parent="5uYzXn4WJ4j_uTU6qq_i-185" vertex="1" connectable="0">
          <mxGeometry x="7220.50583632882" y="6138.5109894332445" width="2239.337806637675" height="611.489010566755" as="geometry" />
        </mxCell>
        <mxCell id="5uYzXn4WJ4j_uTU6qq_i-124" style="vsdxID=2;edgeStyle=none;startArrow=none;endArrow=none;startSize=5;endSize=5;strokeWidth=3;strokeColor=#000000;spacingTop=0;spacingBottom=0;spacingLeft=0;spacingRight=0;verticalAlign=middle;html=1;labelBackgroundColor=none;rounded=0;fontFamily=icocpeur;fontSize=57;movable=1;resizable=1;rotatable=1;deletable=1;editable=1;locked=0;connectable=1;" parent="5uYzXn4WJ4j_uTU6qq_i-123" edge="1">
          <mxGeometry as="geometry">
            <Array as="points" />
            <mxPoint x="8.494163671180104" y="609.4890105667555" as="sourcePoint" />
            <mxPoint x="12.02329023698081" y="36.12171370436528" as="targetPoint" />
          </mxGeometry>
        </mxCell>
        <mxCell id="5uYzXn4WJ4j_uTU6qq_i-125" style="vsdxID=3;edgeStyle=none;startArrow=none;endArrow=none;startSize=5;endSize=5;strokeWidth=3;strokeColor=#000000;spacingTop=0;spacingBottom=0;spacingLeft=0;spacingRight=0;verticalAlign=middle;html=1;labelBackgroundColor=none;rounded=0;fontFamily=icocpeur;fontSize=57;movable=1;resizable=1;rotatable=1;deletable=1;editable=1;locked=0;connectable=1;" parent="5uYzXn4WJ4j_uTU6qq_i-123" edge="1">
          <mxGeometry as="geometry">
            <mxPoint as="offset" />
            <Array as="points" />
            <mxPoint x="12.02329023698081" y="36.12171370436528" as="sourcePoint" />
            <mxPoint x="2236.3319840784307" y="36.12171370436528" as="targetPoint" />
          </mxGeometry>
        </mxCell>
        <mxCell id="5uYzXn4WJ4j_uTU6qq_i-126" style="vsdxID=4;edgeStyle=none;startArrow=none;endArrow=none;startSize=5;endSize=5;strokeWidth=3;strokeColor=#000000;spacingTop=0;spacingBottom=0;spacingLeft=0;spacingRight=0;verticalAlign=middle;html=1;labelBackgroundColor=none;rounded=0;fontFamily=icocpeur;fontSize=57;movable=1;resizable=1;rotatable=1;deletable=1;editable=1;locked=0;connectable=1;" parent="5uYzXn4WJ4j_uTU6qq_i-123" edge="1">
          <mxGeometry as="geometry">
            <mxPoint as="offset" />
            <Array as="points" />
            <mxPoint x="12.02329023698081" y="190.92905815164502" as="sourcePoint" />
            <mxPoint x="2236.3319840784307" y="190.92905815164502" as="targetPoint" />
          </mxGeometry>
        </mxCell>
        <mxCell id="5uYzXn4WJ4j_uTU6qq_i-127" value="" style="vsdxID=5;edgeStyle=none;startArrow=none;endArrow=none;startSize=5;endSize=5;strokeWidth=3;strokeColor=#000000;spacingTop=0;spacingBottom=0;spacingLeft=0;spacingRight=0;verticalAlign=middle;html=1;labelBackgroundColor=none;rounded=0;align=center;fontFamily=icocpeur;fontSize=57;movable=1;resizable=1;rotatable=1;deletable=1;editable=1;locked=0;connectable=1;" parent="5uYzXn4WJ4j_uTU6qq_i-123" edge="1">
          <mxGeometry as="geometry">
            <mxPoint as="offset" />
            <Array as="points" />
            <mxPoint x="12.02329023698081" y="448.94129889711127" as="sourcePoint" />
            <mxPoint x="2236.3319840784307" y="448.94129889711127" as="targetPoint" />
          </mxGeometry>
        </mxCell>
        <mxCell id="5uYzXn4WJ4j_uTU6qq_i-128" style="vsdxID=6;edgeStyle=none;startArrow=none;endArrow=none;startSize=5;endSize=5;strokeWidth=3;strokeColor=#000000;spacingTop=0;spacingBottom=0;spacingLeft=0;spacingRight=0;verticalAlign=middle;html=1;labelBackgroundColor=none;rounded=0;fontFamily=icocpeur;fontSize=57;movable=1;resizable=1;rotatable=1;deletable=1;editable=1;locked=0;connectable=1;" parent="5uYzXn4WJ4j_uTU6qq_i-123" edge="1">
          <mxGeometry as="geometry">
            <Array as="points" />
            <mxPoint x="239.4941636711801" y="610.4890105667555" as="sourcePoint" />
            <mxPoint x="239.4192242656545" y="36.12171370436528" as="targetPoint" />
          </mxGeometry>
        </mxCell>
        <mxCell id="5uYzXn4WJ4j_uTU6qq_i-129" style="vsdxID=7;edgeStyle=none;startArrow=none;endArrow=none;startSize=5;endSize=5;strokeWidth=3;strokeColor=#000000;spacingTop=0;spacingBottom=0;spacingLeft=0;spacingRight=0;verticalAlign=middle;html=1;labelBackgroundColor=none;rounded=0;fontFamily=icocpeur;fontSize=57;movable=1;resizable=1;rotatable=1;deletable=1;editable=1;locked=0;connectable=1;" parent="5uYzXn4WJ4j_uTU6qq_i-123" edge="1">
          <mxGeometry as="geometry">
            <Array as="points" />
            <mxPoint x="492.4941636711801" y="609.4890105667555" as="sourcePoint" />
            <mxPoint x="492.95489971621316" y="36.12171370436528" as="targetPoint" />
          </mxGeometry>
        </mxCell>
        <mxCell id="5uYzXn4WJ4j_uTU6qq_i-130" style="vsdxID=8;edgeStyle=none;startArrow=none;endArrow=none;startSize=5;endSize=5;strokeWidth=3;strokeColor=#000000;spacingTop=0;spacingBottom=0;spacingLeft=0;spacingRight=0;verticalAlign=middle;html=1;labelBackgroundColor=none;rounded=0;fontFamily=icocpeur;fontSize=57;movable=1;resizable=1;rotatable=1;deletable=1;editable=1;locked=0;connectable=1;" parent="5uYzXn4WJ4j_uTU6qq_i-123" edge="1">
          <mxGeometry as="geometry">
            <Array as="points" />
            <mxPoint x="651.4941636711801" y="608.4890105667555" as="sourcePoint" />
            <mxPoint x="651.3042532709253" y="36.12171370436528" as="targetPoint" />
          </mxGeometry>
        </mxCell>
        <mxCell id="5uYzXn4WJ4j_uTU6qq_i-131" style="vsdxID=9;edgeStyle=none;startArrow=none;endArrow=none;startSize=5;endSize=5;strokeWidth=3;strokeColor=#000000;spacingTop=0;spacingBottom=0;spacingLeft=0;spacingRight=0;verticalAlign=middle;html=1;labelBackgroundColor=none;rounded=0;fontFamily=icocpeur;fontSize=57;movable=1;resizable=1;rotatable=1;deletable=1;editable=1;locked=0;connectable=1;" parent="5uYzXn4WJ4j_uTU6qq_i-123" edge="1">
          <mxGeometry as="geometry">
            <Array as="points" />
            <mxPoint x="793.4941636711801" y="609.4890105667555" as="sourcePoint" />
            <mxPoint x="793.5371556407335" y="36.12171370436528" as="targetPoint" />
          </mxGeometry>
        </mxCell>
        <mxCell id="5uYzXn4WJ4j_uTU6qq_i-132" style="vsdxID=10;edgeStyle=none;startArrow=none;endArrow=none;startSize=5;endSize=5;strokeWidth=3;strokeColor=#000000;spacingTop=0;spacingBottom=0;spacingLeft=0;spacingRight=0;verticalAlign=middle;html=1;labelBackgroundColor=none;rounded=0;fontFamily=icocpeur;fontSize=57;movable=1;resizable=1;rotatable=1;deletable=1;editable=1;locked=0;connectable=1;" parent="5uYzXn4WJ4j_uTU6qq_i-123" edge="1">
          <mxGeometry as="geometry">
            <Array as="points" />
            <mxPoint x="1635.49416367118" y="609.4890105667555" as="sourcePoint" />
            <mxPoint x="1635.1674722293897" y="190.92905815164502" as="targetPoint" />
          </mxGeometry>
        </mxCell>
        <mxCell id="5uYzXn4WJ4j_uTU6qq_i-133" style="vsdxID=11;edgeStyle=none;startArrow=none;endArrow=none;startSize=5;endSize=5;strokeColor=#000000;spacingTop=0;spacingBottom=0;spacingLeft=0;spacingRight=0;verticalAlign=middle;html=1;labelBackgroundColor=none;rounded=0;fontFamily=icocpeur;fontSize=57;movable=1;resizable=1;rotatable=1;deletable=1;editable=1;locked=0;connectable=1;" parent="5uYzXn4WJ4j_uTU6qq_i-123" edge="1">
          <mxGeometry as="geometry">
            <Array as="points" />
            <mxPoint x="12.02329023698081" y="552.1461951952978" as="sourcePoint" />
            <mxPoint x="793.5371556407335" y="552.1461951952978" as="targetPoint" />
          </mxGeometry>
        </mxCell>
        <mxCell id="5uYzXn4WJ4j_uTU6qq_i-134" style="vsdxID=12;edgeStyle=none;startArrow=none;endArrow=none;startSize=5;endSize=5;strokeColor=#000000;spacingTop=0;spacingBottom=0;spacingLeft=0;spacingRight=0;verticalAlign=middle;html=1;labelBackgroundColor=none;rounded=0;fontFamily=icocpeur;fontSize=57;movable=1;resizable=1;rotatable=1;deletable=1;editable=1;locked=0;connectable=1;" parent="5uYzXn4WJ4j_uTU6qq_i-123" edge="1">
          <mxGeometry as="geometry">
            <Array as="points" />
            <mxPoint x="12.02329023698081" y="500.54374704620454" as="sourcePoint" />
            <mxPoint x="793.5371556407335" y="500.54374704620454" as="targetPoint" />
          </mxGeometry>
        </mxCell>
        <mxCell id="5uYzXn4WJ4j_uTU6qq_i-135" style="vsdxID=13;edgeStyle=none;startArrow=none;endArrow=none;startSize=5;endSize=5;strokeColor=#000000;spacingTop=0;spacingBottom=0;spacingLeft=0;spacingRight=0;verticalAlign=middle;html=1;labelBackgroundColor=none;rounded=0;entryX=-0.001;entryY=0.789;entryDx=0;entryDy=0;entryPerimeter=0;exitX=-0.001;exitY=0.789;exitDx=0;exitDy=0;exitPerimeter=0;fontFamily=icocpeur;fontSize=57;movable=1;resizable=1;rotatable=1;deletable=1;editable=1;locked=0;connectable=1;" parent="5uYzXn4WJ4j_uTU6qq_i-123" target="5uYzXn4WJ4j_uTU6qq_i-170" edge="1">
          <mxGeometry as="geometry">
            <Array as="points" />
            <mxPoint x="15.02911279622601" y="389.59848352565405" as="sourcePoint" />
            <mxPoint x="808.5662684369594" y="392.17860593310866" as="targetPoint" />
          </mxGeometry>
        </mxCell>
        <mxCell id="5uYzXn4WJ4j_uTU6qq_i-136" style="vsdxID=14;edgeStyle=none;startArrow=none;endArrow=none;startSize=5;endSize=5;strokeColor=#000000;spacingTop=0;spacingBottom=0;spacingLeft=0;spacingRight=0;verticalAlign=middle;html=1;labelBackgroundColor=none;rounded=0;fontFamily=icocpeur;fontSize=57;movable=1;resizable=1;rotatable=1;deletable=1;editable=1;locked=0;connectable=1;" parent="5uYzXn4WJ4j_uTU6qq_i-123" edge="1">
          <mxGeometry as="geometry">
            <Array as="points" />
            <mxPoint x="12.02329023698081" y="345.73640259892477" as="sourcePoint" />
            <mxPoint x="793.5371556407335" y="345.73640259892477" as="targetPoint" />
          </mxGeometry>
        </mxCell>
        <mxCell id="5uYzXn4WJ4j_uTU6qq_i-137" style="vsdxID=15;edgeStyle=none;startArrow=none;endArrow=none;startSize=5;endSize=5;strokeWidth=3;strokeColor=#000000;spacingTop=0;spacingBottom=0;spacingLeft=0;spacingRight=0;verticalAlign=middle;html=1;labelBackgroundColor=none;rounded=0;fontFamily=icocpeur;fontSize=57;movable=1;resizable=1;rotatable=1;deletable=1;editable=1;locked=0;connectable=1;" parent="5uYzXn4WJ4j_uTU6qq_i-123" edge="1">
          <mxGeometry as="geometry">
            <Array as="points" />
            <mxPoint x="12.02329023698081" y="294.13395444983155" as="sourcePoint" />
            <mxPoint x="793.5371556407335" y="294.13395444983155" as="targetPoint" />
          </mxGeometry>
        </mxCell>
        <mxCell id="5uYzXn4WJ4j_uTU6qq_i-138" style="vsdxID=16;edgeStyle=none;startArrow=none;endArrow=none;startSize=5;endSize=5;strokeWidth=3;strokeColor=#000000;spacingTop=0;spacingBottom=0;spacingLeft=0;spacingRight=0;verticalAlign=middle;html=1;labelBackgroundColor=none;rounded=0;fontFamily=icocpeur;fontSize=57;movable=1;resizable=1;rotatable=1;deletable=1;editable=1;locked=0;connectable=1;" parent="5uYzXn4WJ4j_uTU6qq_i-123" edge="1">
          <mxGeometry as="geometry">
            <Array as="points" />
            <mxPoint x="12.02329023698081" y="242.53150630073822" as="sourcePoint" />
            <mxPoint x="793.5371556407335" y="242.53150630073822" as="targetPoint" />
          </mxGeometry>
        </mxCell>
        <mxCell id="5uYzXn4WJ4j_uTU6qq_i-139" style="vsdxID=17;edgeStyle=none;startArrow=none;endArrow=none;startSize=5;endSize=5;strokeColor=#000000;spacingTop=0;spacingBottom=0;spacingLeft=0;spacingRight=0;verticalAlign=middle;html=1;labelBackgroundColor=none;rounded=0;fontFamily=icocpeur;fontSize=57;movable=1;resizable=1;rotatable=1;deletable=1;editable=1;locked=0;connectable=1;" parent="5uYzXn4WJ4j_uTU6qq_i-123" edge="1">
          <mxGeometry as="geometry">
            <Array as="points" />
            <mxPoint x="12.02329023698081" y="139.32661000255175" as="sourcePoint" />
            <mxPoint x="793.5371556407335" y="139.32661000255175" as="targetPoint" />
          </mxGeometry>
        </mxCell>
        <mxCell id="5uYzXn4WJ4j_uTU6qq_i-140" style="vsdxID=18;edgeStyle=none;startArrow=none;endArrow=none;startSize=5;endSize=5;strokeColor=#000000;spacingTop=0;spacingBottom=0;spacingLeft=0;spacingRight=0;verticalAlign=middle;html=1;labelBackgroundColor=none;rounded=0;fontFamily=icocpeur;fontSize=57;movable=1;resizable=1;rotatable=1;deletable=1;editable=1;locked=0;connectable=1;" parent="5uYzXn4WJ4j_uTU6qq_i-123" edge="1">
          <mxGeometry as="geometry">
            <Array as="points" />
            <mxPoint x="12.02329023698081" y="87.72416185345853" as="sourcePoint" />
            <mxPoint x="793.5371556407335" y="87.72416185345853" as="targetPoint" />
          </mxGeometry>
        </mxCell>
        <mxCell id="5uYzXn4WJ4j_uTU6qq_i-141" style="vsdxID=19;edgeStyle=none;startArrow=none;endArrow=none;startSize=5;endSize=5;strokeWidth=3;strokeColor=#000000;spacingTop=0;spacingBottom=0;spacingLeft=0;spacingRight=0;verticalAlign=middle;html=1;labelBackgroundColor=none;rounded=0;fontFamily=icocpeur;fontSize=57;movable=1;resizable=1;rotatable=1;deletable=1;editable=1;locked=0;connectable=1;" parent="5uYzXn4WJ4j_uTU6qq_i-123" edge="1">
          <mxGeometry as="geometry">
            <Array as="points" />
            <mxPoint x="104.18632189584648" y="36.12171370436528" as="sourcePoint" />
            <mxPoint x="104.18632189584648" y="294.13395444983155" as="targetPoint" />
          </mxGeometry>
        </mxCell>
        <mxCell id="5uYzXn4WJ4j_uTU6qq_i-142" style="vsdxID=20;edgeStyle=none;startArrow=none;endArrow=none;startSize=5;endSize=5;strokeWidth=3;strokeColor=#000000;spacingTop=0;spacingBottom=0;spacingLeft=0;spacingRight=0;verticalAlign=middle;html=1;labelBackgroundColor=none;rounded=0;fontFamily=icocpeur;fontSize=57;movable=1;resizable=1;rotatable=1;deletable=1;editable=1;locked=0;connectable=1;" parent="5uYzXn4WJ4j_uTU6qq_i-123" edge="1">
          <mxGeometry as="geometry">
            <mxPoint as="offset" />
            <Array as="points" />
            <mxPoint x="1635.1674722293897" y="397.33885074801805" as="sourcePoint" />
            <mxPoint x="2236.3319840784307" y="397.33885074801805" as="targetPoint" />
          </mxGeometry>
        </mxCell>
        <mxCell id="5uYzXn4WJ4j_uTU6qq_i-143" style="vsdxID=21;edgeStyle=none;startArrow=none;endArrow=none;startSize=5;endSize=5;strokeWidth=3;strokeColor=#000000;spacingTop=0;spacingBottom=0;spacingLeft=0;spacingRight=0;verticalAlign=middle;html=1;labelBackgroundColor=none;rounded=0;fontFamily=icocpeur;fontSize=57;movable=1;resizable=1;rotatable=1;deletable=1;editable=1;locked=0;connectable=1;" parent="5uYzXn4WJ4j_uTU6qq_i-123" edge="1">
          <mxGeometry as="geometry">
            <mxPoint as="offset" />
            <Array as="points" />
            <mxPoint x="1635.1674722293897" y="242.53150630073822" as="sourcePoint" />
            <mxPoint x="2236.3319840784307" y="242.53150630073822" as="targetPoint" />
          </mxGeometry>
        </mxCell>
        <mxCell id="5uYzXn4WJ4j_uTU6qq_i-144" style="vsdxID=22;edgeStyle=none;startArrow=none;endArrow=none;startSize=5;endSize=5;strokeColor=#000000;spacingTop=0;spacingBottom=0;spacingLeft=0;spacingRight=0;verticalAlign=middle;html=1;labelBackgroundColor=none;rounded=0;fontFamily=icocpeur;fontSize=57;movable=1;resizable=1;rotatable=1;deletable=1;editable=1;locked=0;connectable=1;" parent="5uYzXn4WJ4j_uTU6qq_i-123" edge="1">
          <mxGeometry as="geometry">
            <Array as="points" />
            <mxPoint x="1695.283923414294" y="242.53150630073822" as="sourcePoint" />
            <mxPoint x="1695.283923414294" y="397.33885074801805" as="targetPoint" />
          </mxGeometry>
        </mxCell>
        <mxCell id="5uYzXn4WJ4j_uTU6qq_i-145" style="vsdxID=23;edgeStyle=none;startArrow=none;endArrow=none;startSize=5;endSize=5;strokeColor=#000000;spacingTop=0;spacingBottom=0;spacingLeft=0;spacingRight=0;verticalAlign=middle;html=1;labelBackgroundColor=none;rounded=0;fontFamily=icocpeur;fontSize=57;movable=1;resizable=1;rotatable=1;deletable=1;editable=1;locked=0;connectable=1;" parent="5uYzXn4WJ4j_uTU6qq_i-123" edge="1">
          <mxGeometry as="geometry">
            <Array as="points" />
            <mxPoint x="1755.4003745991984" y="242.53150630073822" as="sourcePoint" />
            <mxPoint x="1755.4003745991984" y="397.33885074801805" as="targetPoint" />
          </mxGeometry>
        </mxCell>
        <mxCell id="5uYzXn4WJ4j_uTU6qq_i-146" style="vsdxID=24;edgeStyle=none;startArrow=none;endArrow=none;startSize=5;endSize=5;strokeWidth=3;strokeColor=#000000;spacingTop=0;spacingBottom=0;spacingLeft=0;spacingRight=0;verticalAlign=middle;html=1;labelBackgroundColor=none;rounded=0;fontFamily=icocpeur;fontSize=57;movable=1;resizable=1;rotatable=1;deletable=1;editable=1;locked=0;connectable=1;" parent="5uYzXn4WJ4j_uTU6qq_i-123" edge="1">
          <mxGeometry as="geometry">
            <Array as="points" />
            <mxPoint x="1815.5168257841017" y="190.92905815164502" as="sourcePoint" />
            <mxPoint x="1815.5168257841017" y="397.33885074801805" as="targetPoint" />
          </mxGeometry>
        </mxCell>
        <mxCell id="5uYzXn4WJ4j_uTU6qq_i-147" style="vsdxID=25;edgeStyle=none;startArrow=none;endArrow=none;startSize=5;endSize=5;strokeWidth=3;strokeColor=#000000;spacingTop=0;spacingBottom=0;spacingLeft=0;spacingRight=0;verticalAlign=middle;html=1;labelBackgroundColor=none;rounded=0;fontFamily=icocpeur;fontSize=57;movable=1;resizable=1;rotatable=1;deletable=1;editable=1;locked=0;connectable=1;" parent="5uYzXn4WJ4j_uTU6qq_i-123" edge="1">
          <mxGeometry as="geometry">
            <Array as="points" />
            <mxPoint x="1994.9011146942848" y="190.92905815164502" as="sourcePoint" />
            <mxPoint x="1994.9011146942848" y="397.33885074801805" as="targetPoint" />
          </mxGeometry>
        </mxCell>
        <mxCell id="5uYzXn4WJ4j_uTU6qq_i-148" style="vsdxID=26;edgeStyle=none;startArrow=none;endArrow=none;startSize=5;endSize=5;strokeWidth=3;strokeColor=#000000;spacingTop=0;spacingBottom=0;spacingLeft=0;spacingRight=0;verticalAlign=middle;html=1;labelBackgroundColor=none;rounded=0;fontFamily=icocpeur;fontSize=57;movable=1;resizable=1;rotatable=1;deletable=1;editable=1;locked=0;connectable=1;" parent="5uYzXn4WJ4j_uTU6qq_i-123" edge="1">
          <mxGeometry as="geometry">
            <Array as="points" />
            <mxPoint x="1875.6332769690061" y="397.33885074801805" as="sourcePoint" />
            <mxPoint x="1875.6332769690061" y="448.94129889711127" as="targetPoint" />
          </mxGeometry>
        </mxCell>
        <mxCell id="5uYzXn4WJ4j_uTU6qq_i-149" value="&lt;p style=&quot;margin: 0px; text-indent: 0px; direction: ltr; font-size: 57px;&quot;&gt;&lt;font style=&quot;font-size: 57px; color: rgb(0, 0, 0); direction: ltr; letter-spacing: 0px; line-height: 120%; opacity: 1;&quot;&gt;&lt;i style=&quot;font-size: 57px;&quot;&gt;&lt;br style=&quot;font-size: 57px;&quot;&gt;&lt;/i&gt;&lt;/font&gt;&lt;/p&gt;" style="verticalAlign=middle;align=left;vsdxID=27;fillColor=none;gradientColor=none;strokeColor=none;labelBackgroundColor=none;rounded=0;html=1;whiteSpace=wrap;direction=east;fontFamily=icocpeur;fontSize=57;rotation=0;movable=1;resizable=1;rotatable=1;deletable=1;editable=1;locked=0;connectable=1;" parent="5uYzXn4WJ4j_uTU6qq_i-123" vertex="1">
          <mxGeometry x="3.0058225592452024" y="503.12386945365915" width="237.4599821803709" height="49.02232574163858" as="geometry" />
        </mxCell>
        <mxCell id="5uYzXn4WJ4j_uTU6qq_i-150" value="&lt;p style=&quot;margin: 0px; text-indent: 0px; direction: ltr; font-size: 57px;&quot;&gt;&lt;font style=&quot;font-size: 57px; color: rgb(0, 0, 0); direction: ltr; letter-spacing: 0px; line-height: 120%; opacity: 1;&quot;&gt;&lt;i style=&quot;font-size: 57px;&quot;&gt;&lt;br style=&quot;font-size: 57px;&quot;&gt;&lt;/i&gt;&lt;/font&gt;&lt;/p&gt;" style="verticalAlign=middle;align=left;vsdxID=28;fillColor=none;gradientColor=none;strokeColor=none;labelBackgroundColor=none;rounded=0;html=1;whiteSpace=wrap;direction=east;fontFamily=icocpeur;fontSize=57;rotation=0;movable=1;resizable=1;rotatable=1;deletable=1;editable=1;locked=0;connectable=1;" parent="5uYzXn4WJ4j_uTU6qq_i-123" vertex="1">
          <mxGeometry x="3.0058225592452024" y="552.1461951952978" width="195.3784663509381" height="49.02232574163858" as="geometry" />
        </mxCell>
        <mxCell id="5uYzXn4WJ4j_uTU6qq_i-151" value="&lt;p style=&quot;margin: 0px; text-indent: 0px; direction: ltr; font-size: 57px;&quot;&gt;&lt;font style=&quot;font-size: 57px; color: rgb(0, 0, 0); direction: ltr; letter-spacing: 0px; line-height: 120%; opacity: 1;&quot;&gt;&lt;i style=&quot;font-size: 57px;&quot;&gt;&lt;br style=&quot;font-size: 57px;&quot;&gt;&lt;/i&gt;&lt;/font&gt;&lt;/p&gt;" style="verticalAlign=middle;align=left;vsdxID=29;fillColor=none;gradientColor=none;strokeColor=none;labelBackgroundColor=none;rounded=0;html=1;whiteSpace=wrap;direction=east;fontFamily=icocpeur;fontSize=57;rotation=0;movable=1;resizable=1;rotatable=1;deletable=1;editable=1;locked=0;connectable=1;" parent="5uYzXn4WJ4j_uTU6qq_i-123" vertex="1">
          <mxGeometry y="394.7587283405635" width="228.44251450263533" height="46.44220333418393" as="geometry" />
        </mxCell>
        <mxCell id="5uYzXn4WJ4j_uTU6qq_i-152" value="&lt;p style=&quot;margin: 0px; text-indent: 0px; direction: ltr; font-size: 57px;&quot;&gt;&lt;font style=&quot;font-size: 57px; color: rgb(0, 0, 0); direction: ltr; letter-spacing: 0px; line-height: 120%; opacity: 1;&quot;&gt;&lt;i style=&quot;font-size: 57px;&quot;&gt;Провер.&lt;br style=&quot;font-size: 57px;&quot;&gt;&lt;/i&gt;&lt;/font&gt;&lt;/p&gt;" style="verticalAlign=middle;align=left;vsdxID=30;fillColor=none;gradientColor=none;strokeColor=none;labelBackgroundColor=none;rounded=0;html=1;whiteSpace=wrap;direction=east;fontFamily=icocpeur;fontSize=57;rotation=0;movable=1;resizable=1;rotatable=1;deletable=1;editable=1;locked=0;connectable=1;" parent="5uYzXn4WJ4j_uTU6qq_i-123" vertex="1">
          <mxGeometry x="15.02911279622601" y="345.73640259892477" width="207.40175658791898" height="49.02232574163858" as="geometry" />
        </mxCell>
        <mxCell id="5uYzXn4WJ4j_uTU6qq_i-153" value="&lt;p style=&quot;margin: 0px; text-indent: 0px; direction: ltr; font-size: 57px;&quot;&gt;&lt;font style=&quot;font-size: 57px; color: rgb(0, 0, 0); direction: ltr; letter-spacing: 0px; line-height: 120%; opacity: 1;&quot;&gt;&lt;i style=&quot;font-size: 57px;&quot;&gt;Разраб.&lt;br style=&quot;font-size: 57px;&quot;&gt;&lt;/i&gt;&lt;/font&gt;&lt;/p&gt;" style="verticalAlign=middle;align=left;vsdxID=31;fillColor=none;gradientColor=none;strokeColor=none;labelBackgroundColor=none;rounded=0;html=1;whiteSpace=wrap;direction=east;fontFamily=icocpeur;fontSize=57;rotation=0;movable=1;resizable=1;rotatable=1;deletable=1;editable=1;locked=0;connectable=1;" parent="5uYzXn4WJ4j_uTU6qq_i-123" vertex="1">
          <mxGeometry x="15.02911279622601" y="296.71407685728616" width="207.40175658791898" height="43.86208092672926" as="geometry" />
        </mxCell>
        <mxCell id="5uYzXn4WJ4j_uTU6qq_i-154" value="&lt;p style=&quot;margin: 0px; text-indent: 0px; direction: ltr; font-size: 57px;&quot;&gt;&lt;font style=&quot;font-size: 57px; color: rgb(0, 0, 0); direction: ltr; letter-spacing: 0px; line-height: 120%; opacity: 1;&quot;&gt;&lt;i style=&quot;font-size: 57px;&quot;&gt;Изм&lt;br style=&quot;font-size: 57px;&quot;&gt;&lt;/i&gt;&lt;/font&gt;&lt;/p&gt;" style="verticalAlign=middle;align=center;vsdxID=32;fillColor=none;gradientColor=none;strokeColor=none;labelBackgroundColor=none;rounded=0;html=1;whiteSpace=wrap;direction=east;fontFamily=icocpeur;fontSize=57;rotation=0;movable=1;resizable=1;rotatable=1;deletable=1;editable=1;locked=0;connectable=1;" parent="5uYzXn4WJ4j_uTU6qq_i-123" vertex="1">
          <mxGeometry x="4" y="245.11162870819285" width="108.20961213282725" height="43.86208092672926" as="geometry" />
        </mxCell>
        <mxCell id="5uYzXn4WJ4j_uTU6qq_i-155" value="&lt;p style=&quot;margin: 0px; text-indent: 0px; direction: ltr; font-size: 57px;&quot;&gt;&lt;font style=&quot;font-size: 57px; color: rgb(0, 0, 0); direction: ltr; letter-spacing: 0px; line-height: 120%; opacity: 1;&quot;&gt;&lt;i style=&quot;font-size: 57px;&quot;&gt;Лист&lt;br style=&quot;font-size: 57px;&quot;&gt;&lt;/i&gt;&lt;/font&gt;&lt;/p&gt;" style="verticalAlign=middle;align=center;vsdxID=33;fillColor=none;gradientColor=none;strokeColor=none;labelBackgroundColor=none;rounded=0;html=1;whiteSpace=wrap;direction=east;fontFamily=icocpeur;fontSize=57;rotation=0;movable=1;resizable=1;rotatable=1;deletable=1;editable=1;locked=0;connectable=1;" parent="5uYzXn4WJ4j_uTU6qq_i-123" vertex="1">
          <mxGeometry x="111.17467677735608" y="245.11162870819285" width="126.24454748829847" height="43.86208092672926" as="geometry" />
        </mxCell>
        <mxCell id="5uYzXn4WJ4j_uTU6qq_i-156" value="&lt;p style=&quot;margin: 0px; text-indent: 0px; direction: ltr; font-size: 57px;&quot;&gt;&lt;font style=&quot;font-size: 57px; color: rgb(0, 0, 0); direction: ltr; letter-spacing: 0px; line-height: 120%; opacity: 1;&quot;&gt;&lt;i style=&quot;font-size: 57px;&quot;&gt;№ докум.&lt;br style=&quot;font-size: 57px;&quot;&gt;&lt;/i&gt;&lt;/font&gt;&lt;/p&gt;" style="verticalAlign=middle;align=center;vsdxID=34;fillColor=none;gradientColor=none;strokeColor=none;labelBackgroundColor=none;rounded=0;html=1;whiteSpace=wrap;direction=east;fontFamily=icocpeur;fontSize=57;rotation=0;movable=1;resizable=1;rotatable=1;deletable=1;editable=1;locked=0;connectable=1;" parent="5uYzXn4WJ4j_uTU6qq_i-123" vertex="1">
          <mxGeometry x="229.4250468248998" y="245.11162870819285" width="264.51238521357766" height="43.86208092672926" as="geometry" />
        </mxCell>
        <mxCell id="5uYzXn4WJ4j_uTU6qq_i-157" value="&lt;p style=&quot;margin: 0px; text-indent: 0px; direction: ltr; font-size: 57px;&quot;&gt;&lt;font style=&quot;font-size: 57px; color: rgb(0, 0, 0); direction: ltr; letter-spacing: 0px; line-height: 120%; opacity: 1;&quot;&gt;&lt;i style=&quot;font-size: 57px;&quot;&gt;Подп.&lt;br style=&quot;font-size: 57px;&quot;&gt;&lt;/i&gt;&lt;/font&gt;&lt;/p&gt;" style="verticalAlign=middle;align=center;vsdxID=35;fillColor=none;gradientColor=none;strokeColor=none;labelBackgroundColor=none;rounded=0;html=1;whiteSpace=wrap;direction=east;fontFamily=icocpeur;fontSize=57;rotation=0;movable=1;resizable=1;rotatable=1;deletable=1;editable=1;locked=0;connectable=1;" parent="5uYzXn4WJ4j_uTU6qq_i-123" vertex="1">
          <mxGeometry x="495.96072227545824" y="245.11162870819285" width="171.3318858769765" height="43.86208092672926" as="geometry" />
        </mxCell>
        <mxCell id="5uYzXn4WJ4j_uTU6qq_i-158" value="&lt;p style=&quot;margin: 0px; text-indent: 0px; direction: ltr; font-size: 57px;&quot;&gt;&lt;font style=&quot;color: rgb(0, 0, 0); direction: ltr; letter-spacing: 0px; line-height: 120%; opacity: 1; font-size: 57px;&quot;&gt;&lt;i style=&quot;font-size: 57px;&quot;&gt;&lt;font style=&quot;font-size: 57px;&quot;&gt;Дата&lt;/font&gt;&lt;br style=&quot;font-size: 57px;&quot;&gt;&lt;/i&gt;&lt;/font&gt;&lt;/p&gt;" style="verticalAlign=middle;align=center;vsdxID=36;fillColor=none;gradientColor=none;strokeColor=none;labelBackgroundColor=none;rounded=0;html=1;whiteSpace=wrap;direction=east;fontFamily=icocpeur;fontSize=57;rotation=0;movable=1;resizable=1;rotatable=1;deletable=1;editable=1;locked=0;connectable=1;" parent="5uYzXn4WJ4j_uTU6qq_i-123" vertex="1">
          <mxGeometry x="664.2926081524348" y="245.11162870819285" width="126.24454748829847" height="43.86208092672926" as="geometry" />
        </mxCell>
        <mxCell id="5uYzXn4WJ4j_uTU6qq_i-159" value="&lt;p style=&quot;margin: 0px; text-indent: 0px; direction: ltr; font-size: 57px;&quot;&gt;&lt;font style=&quot;font-size: 57px; color: rgb(0, 0, 0); direction: ltr; letter-spacing: 0px; line-height: 120%; opacity: 1;&quot;&gt;&lt;i style=&quot;font-size: 57px;&quot;&gt;Лит.&lt;br style=&quot;font-size: 57px;&quot;&gt;&lt;/i&gt;&lt;/font&gt;&lt;/p&gt;" style="verticalAlign=middle;align=center;vsdxID=37;fillColor=none;gradientColor=none;strokeColor=none;labelBackgroundColor=none;rounded=0;html=1;whiteSpace=wrap;direction=east;fontFamily=icocpeur;fontSize=57;rotation=0;movable=1;resizable=1;rotatable=1;deletable=1;editable=1;locked=0;connectable=1;" parent="5uYzXn4WJ4j_uTU6qq_i-123" vertex="1">
          <mxGeometry x="1635.1674722293897" y="193.5091805590997" width="171.3318858769765" height="43.86208092672926" as="geometry" />
        </mxCell>
        <mxCell id="5uYzXn4WJ4j_uTU6qq_i-160" value="&lt;p style=&quot;margin: 0px; text-indent: 0px; direction: ltr; font-size: 57px;&quot;&gt;&lt;font style=&quot;font-size: 57px; color: rgb(0, 0, 0); direction: ltr; letter-spacing: 0px; line-height: 120%; opacity: 1;&quot;&gt;&lt;i style=&quot;font-size: 57px;&quot;&gt;Масса&lt;br style=&quot;font-size: 57px;&quot;&gt;&lt;/i&gt;&lt;/font&gt;&lt;/p&gt;" style="verticalAlign=middle;align=center;vsdxID=38;fillColor=none;gradientColor=none;strokeColor=none;labelBackgroundColor=none;rounded=0;html=1;whiteSpace=wrap;direction=east;fontFamily=icocpeur;fontSize=57;rotation=0;movable=1;resizable=1;rotatable=1;deletable=1;editable=1;locked=0;connectable=1;" parent="5uYzXn4WJ4j_uTU6qq_i-123" vertex="1">
          <mxGeometry x="1818.522648343347" y="193.5091805590997" width="189.3668212324477" height="43.86208092672926" as="geometry" />
        </mxCell>
        <mxCell id="5uYzXn4WJ4j_uTU6qq_i-161" value="&lt;p style=&quot;margin: 0px; text-indent: 0px; direction: ltr; font-size: 57px;&quot;&gt;&lt;font style=&quot;font-size: 57px; color: rgb(0, 0, 0); direction: ltr; letter-spacing: 0px; line-height: 120%; opacity: 1;&quot;&gt;&lt;i style=&quot;font-size: 57px;&quot;&gt;Масштаб&lt;br style=&quot;font-size: 57px;&quot;&gt;&lt;/i&gt;&lt;/font&gt;&lt;/p&gt;" style="verticalAlign=middle;align=center;vsdxID=39;fillColor=none;gradientColor=none;strokeColor=none;labelBackgroundColor=none;rounded=0;html=1;whiteSpace=wrap;direction=east;fontFamily=icocpeur;fontSize=57;rotation=0;movable=1;resizable=1;rotatable=1;deletable=1;editable=1;locked=0;connectable=1;" parent="5uYzXn4WJ4j_uTU6qq_i-123" vertex="1">
          <mxGeometry x="2016.9069372535305" y="193.5091805590997" width="213.41340170640933" height="43.86208092672926" as="geometry" />
        </mxCell>
        <mxCell id="5uYzXn4WJ4j_uTU6qq_i-162" value="&lt;p style=&quot;margin: 0px; text-indent: 0px; direction: ltr; font-size: 57px;&quot;&gt;&lt;font style=&quot;font-size: 57px; color: rgb(0, 0, 0); direction: ltr; letter-spacing: 0px; line-height: 120%; opacity: 1;&quot;&gt;&lt;i style=&quot;font-size: 57px;&quot;&gt;Листов 1&lt;br style=&quot;font-size: 57px;&quot;&gt;&lt;/i&gt;&lt;/font&gt;&lt;/p&gt;" style="verticalAlign=middle;align=center;vsdxID=40;fillColor=none;gradientColor=none;strokeColor=none;labelBackgroundColor=none;rounded=0;html=1;whiteSpace=wrap;direction=east;fontFamily=icocpeur;fontSize=57;rotation=0;movable=1;resizable=1;rotatable=1;deletable=1;editable=1;locked=0;connectable=1;" parent="5uYzXn4WJ4j_uTU6qq_i-123" vertex="1">
          <mxGeometry x="1878.6390995282509" y="399.91897315547266" width="351.6812394316885" height="43.86208092672926" as="geometry" />
        </mxCell>
        <mxCell id="5uYzXn4WJ4j_uTU6qq_i-163" value="&lt;p style=&quot;margin: 0px; text-indent: 0px; direction: ltr; font-size: 57px;&quot;&gt;&lt;font style=&quot;font-size: 57px; color: rgb(0, 0, 0); direction: ltr; letter-spacing: 0px; line-height: 120%; opacity: 1;&quot;&gt;&lt;i style=&quot;font-size: 57px;&quot;&gt;Лист 1&lt;br style=&quot;font-size: 57px;&quot;&gt;&lt;/i&gt;&lt;/font&gt;&lt;/p&gt;" style="verticalAlign=middle;align=center;vsdxID=41;fillColor=none;gradientColor=none;strokeColor=none;labelBackgroundColor=none;rounded=0;html=1;whiteSpace=wrap;direction=east;fontFamily=icocpeur;fontSize=57;rotation=0;movable=1;resizable=1;rotatable=1;deletable=1;editable=1;locked=0;connectable=1;" parent="5uYzXn4WJ4j_uTU6qq_i-123" vertex="1">
          <mxGeometry x="1638.1732947886346" y="399.91897315547266" width="228.44251450263533" height="43.86208092672926" as="geometry" />
        </mxCell>
        <mxCell id="5uYzXn4WJ4j_uTU6qq_i-164" value="&lt;p style=&quot;margin: 0px; text-indent: 0px; direction: ltr; font-size: 57px;&quot;&gt;&lt;font style=&quot;font-size: 57px;&quot;&gt;&lt;i style=&quot;font-size: 57px;&quot;&gt;Шатова&lt;/i&gt;&lt;/font&gt;&lt;/p&gt;" style="verticalAlign=middle;align=left;vsdxID=44;fillColor=none;gradientColor=none;shape=stencil(nZBLDoAgDERP0z3SIyjew0SURgSD+Lu9kMZoXLhwN9O+tukAlrNpJg1SzDH4QW/URgNYgZTkjA4UkwJUgGXng+6DX1zLfmoymdXo17xh5zmRJ6Q42BWCfc2oJfdAr+Yv+AP9Cb7OJ3H/2JG1HNGz/84klThPVCc=);strokeColor=none;labelBackgroundColor=none;rounded=0;html=1;whiteSpace=wrap;direction=east;fontFamily=icocpeur;fontSize=57;rotation=0;movable=1;resizable=1;rotatable=1;deletable=1;editable=1;locked=0;connectable=1;" parent="5uYzXn4WJ4j_uTU6qq_i-123" vertex="1">
          <mxGeometry x="241.43669194339014" y="335.41591296910605" width="414.80351317583796" height="72.24342740873055" as="geometry" />
        </mxCell>
        <mxCell id="5uYzXn4WJ4j_uTU6qq_i-165" value="&lt;i style=&quot;font-size: 57px;&quot;&gt;Кирилюк&lt;/i&gt;" style="verticalAlign=middle;align=left;vsdxID=45;fillColor=none;gradientColor=none;shape=stencil(nZBLDoAgDERP0z3SIyjew0SURgSD+Lu9kMZoXLhwN9O+tukAlrNpJg1SzDH4QW/URgNYgZTkjA4UkwJUgGXng+6DX1zLfmoymdXo17xh5zmRJ6Q42BWCfc2oJfdAr+Yv+AP9Cb7OJ3H/2JG1HNGz/84klThPVCc=);strokeColor=none;labelBackgroundColor=none;rounded=0;html=1;whiteSpace=wrap;direction=east;fontFamily=icocpeur;fontSize=57;rotation=0;movable=1;resizable=1;rotatable=1;deletable=1;editable=1;locked=0;connectable=1;" parent="5uYzXn4WJ4j_uTU6qq_i-123" vertex="1">
          <mxGeometry x="242.43669194339014" y="289.39358722746744" width="258.5007400950874" height="72.24342740873055" as="geometry" />
        </mxCell>
        <mxCell id="5uYzXn4WJ4j_uTU6qq_i-166" value="&lt;p style=&quot;margin: 17px 0px 0px; text-indent: 0px; direction: ltr; font-size: 57px;&quot;&gt;&lt;font style=&quot;font-size: 57px; color: rgb(0, 0, 0); direction: ltr; letter-spacing: 0px; line-height: 120%; opacity: 1;&quot;&gt;&lt;font style=&quot;letter-spacing: 0px; direction: ltr; line-height: 21.6px; opacity: 1; font-size: 57px;&quot;&gt;&lt;i style=&quot;font-size: 57px;&quot;&gt;КП 2-40 01 01&lt;/i&gt;&lt;/font&gt;&lt;font style=&quot;letter-spacing: 0px; direction: ltr; line-height: 21.6px; opacity: 1; font-size: 57px;&quot;&gt;&lt;i style=&quot;font-size: 57px;&quot;&gt;.35&lt;/i&gt;&lt;/font&gt;&lt;font style=&quot;letter-spacing: 0px; direction: ltr; line-height: 21.6px; opacity: 1; font-size: 57px;&quot;&gt;&lt;i style=&quot;font-size: 57px;&quot;&gt;.40&lt;/i&gt;&lt;/font&gt;&lt;font style=&quot;letter-spacing: 0px; direction: ltr; line-height: 21.6px; opacity: 1; font-size: 57px;&quot;&gt;&lt;i style=&quot;font-size: 57px;&quot;&gt;.06&lt;/i&gt;&lt;/font&gt;&lt;font style=&quot;letter-spacing: 0px; direction: ltr; line-height: 21.6px; opacity: 1; font-size: 57px;&quot;&gt;&lt;i style=&quot;font-size: 57px;&quot;&gt;.24&lt;/i&gt;&lt;/font&gt;&lt;font style=&quot;letter-spacing: 0px; direction: ltr; line-height: 21.6px; opacity: 1; font-size: 57px;&quot;&gt;&lt;i style=&quot;font-size: 57px;&quot;&gt;&amp;nbsp;ГЧ&lt;/i&gt;&lt;/font&gt;&lt;i style=&quot;font-size: 57px;&quot;&gt;&lt;br style=&quot;font-size: 57px;&quot;&gt;&lt;/i&gt;&lt;/font&gt;&lt;/p&gt;" style="verticalAlign=middle;align=center;vsdxID=46;fillColor=none;gradientColor=none;shape=stencil(nZBLDoAgDERP0z3SIyjew0SURgSD+Lu9kMZoXLhwN9O+tukAlrNpJg1SzDH4QW/URgNYgZTkjA4UkwJUgGXng+6DX1zLfmoymdXo17xh5zmRJ6Q42BWCfc2oJfdAr+Yv+AP9Cb7OJ3H/2JG1HNGz/84klThPVCc=);strokeColor=none;labelBackgroundColor=none;rounded=0;html=1;whiteSpace=wrap;direction=east;fontFamily=icocpeur;fontSize=57;rotation=0;movable=1;resizable=1;rotatable=1;deletable=1;editable=1;locked=0;connectable=1;" parent="5uYzXn4WJ4j_uTU6qq_i-123" vertex="1">
          <mxGeometry x="925.7909582935368" width="1067.0735434574974" height="175.91406299267996" as="geometry" />
        </mxCell>
        <mxCell id="5uYzXn4WJ4j_uTU6qq_i-167" value="&lt;p style=&quot;margin: 0px; text-indent: 0px; direction: ltr; font-size: 57px;&quot;&gt;&lt;font style=&quot;font-size: 57px; color: rgb(0, 0, 0); direction: ltr; letter-spacing: 0px; line-height: 120%; opacity: 1;&quot;&gt;&lt;i style=&quot;font-size: 57px;&quot;&gt;&lt;br style=&quot;font-size: 57px;&quot;&gt;&lt;/i&gt;&lt;/font&gt;&lt;/p&gt;" style="verticalAlign=middle;align=left;vsdxID=79;fillColor=none;gradientColor=none;shape=stencil(nZBLDoAgDERP0z3SIyjew0SURgSD+Lu9kMZoXLhwN9O+tukAlrNpJg1SzDH4QW/URgNYgZTkjA4UkwJUgGXng+6DX1zLfmoymdXo17xh5zmRJ6Q42BWCfc2oJfdAr+Yv+AP9Cb7OJ3H/2JG1HNGz/84klThPVCc=);strokeColor=none;labelBackgroundColor=none;rounded=0;html=1;whiteSpace=wrap;direction=east;fontFamily=icocpeur;fontSize=57;rotation=0;movable=1;resizable=1;rotatable=1;deletable=1;editable=1;locked=0;connectable=1;" parent="5uYzXn4WJ4j_uTU6qq_i-123" vertex="1">
          <mxGeometry x="210.40757914716414" y="490.2232574163857" width="450.8733838867803" height="72.24342740873055" as="geometry" />
        </mxCell>
        <mxCell id="5uYzXn4WJ4j_uTU6qq_i-168" value="&lt;p style=&quot;margin: 0px; text-indent: 0px; direction: ltr; font-size: 57px;&quot;&gt;&lt;font style=&quot;font-size: 57px; color: rgb(0, 0, 0); direction: ltr; letter-spacing: 0px; line-height: 120%; opacity: 1;&quot;&gt;&lt;i style=&quot;font-size: 57px;&quot;&gt;&lt;br style=&quot;font-size: 57px;&quot;&gt;&lt;/i&gt;&lt;/font&gt;&lt;/p&gt;" style="verticalAlign=middle;align=left;vsdxID=81;fillColor=none;gradientColor=none;shape=stencil(nZBLDoAgDERP0z3SIyjew0SURgSD+Lu9kMZoXLhwN9O+tukAlrNpJg1SzDH4QW/URgNYgZTkjA4UkwJUgGXng+6DX1zLfmoymdXo17xh5zmRJ6Q42BWCfc2oJfdAr+Yv+AP9Cb7OJ3H/2JG1HNGz/84klThPVCc=);strokeColor=none;labelBackgroundColor=none;rounded=0;html=1;whiteSpace=wrap;direction=east;fontFamily=icocpeur;fontSize=57;rotation=0;movable=1;resizable=1;rotatable=1;deletable=1;editable=1;locked=0;connectable=1;" parent="5uYzXn4WJ4j_uTU6qq_i-123" vertex="1">
          <mxGeometry x="207.40175658791898" y="539.2455831580243" width="420.8151582943283" height="72.24342740873055" as="geometry" />
        </mxCell>
        <mxCell id="5uYzXn4WJ4j_uTU6qq_i-169" value="&lt;p style=&quot;margin: 0px; text-indent: 0px; direction: ltr; font-size: 57px;&quot;&gt;&lt;font style=&quot;font-size: 57px; color: rgb(0, 0, 0); direction: ltr; letter-spacing: 0px; line-height: 120%; opacity: 1;&quot;&gt;&lt;i style=&quot;font-size: 57px;&quot;&gt;УО ГГПК&lt;br style=&quot;font-size: 57px;&quot;&gt;&lt;/i&gt;&lt;/font&gt;&lt;/p&gt;" style="verticalAlign=middle;align=center;vsdxID=48;fillColor=none;gradientColor=none;strokeColor=none;labelBackgroundColor=none;rounded=0;html=1;whiteSpace=wrap;direction=east;fontFamily=icocpeur;fontSize=57;rotation=0;movable=1;resizable=1;rotatable=1;deletable=1;editable=1;locked=0;connectable=1;" parent="5uYzXn4WJ4j_uTU6qq_i-123" vertex="1">
          <mxGeometry x="1638.1732947886346" y="446.3611764896567" width="601.1645118490403" height="147.06697722491577" as="geometry" />
        </mxCell>
        <mxCell id="5uYzXn4WJ4j_uTU6qq_i-170" value="&lt;font style=&quot;font-size: 57px; color: rgb(0, 0, 0); direction: ltr; letter-spacing: 0px; line-height: 120%; opacity: 1;&quot;&gt;&lt;i style=&quot;font-size: 57px;&quot;&gt;Схема работы системы&lt;br style=&quot;font-size: 57px;&quot;&gt;&lt;/i&gt;&lt;/font&gt;" style="verticalAlign=middle;align=center;vsdxID=43;fillColor=none;gradientColor=none;shape=stencil(nZBLDoAgDERP0z3SIyjew0SURgSD+Lu9kMZoXLhwN9O+tukAlrNpJg1SzDH4QW/URgNYgZTkjA4UkwJUgGXng+6DX1zLfmoymdXo17xh5zmRJ6Q42BWCfc2oJfdAr+Yv+AP9Cb7OJ3H/2JG1HNGz/84klThPVCc=);strokeColor=none;labelBackgroundColor=none;rounded=0;html=1;whiteSpace=wrap;direction=east;fontFamily=icocpeur;fontSize=57;rotation=0;movable=1;resizable=1;rotatable=1;deletable=1;editable=1;locked=0;connectable=1;" parent="5uYzXn4WJ4j_uTU6qq_i-123" vertex="1">
          <mxGeometry x="790.5313330814879" y="196.08930296655433" width="838.624494029411" height="245.11162870819285" as="geometry" />
        </mxCell>
        <mxCell id="5uYzXn4WJ4j_uTU6qq_i-171" value="" style="endArrow=none;html=1;rounded=0;strokeWidth=3;fontFamily=icocpeur;entryX=1;entryY=1;entryDx=0;entryDy=0;" parent="5uYzXn4WJ4j_uTU6qq_i-123" target="5uYzXn4WJ4j_uTU6qq_i-123" edge="1">
          <mxGeometry width="50" height="50" relative="1" as="geometry">
            <mxPoint x="-7217.494056640821" y="611.4890105667546" as="sourcePoint" />
            <mxPoint x="251.71956959286032" y="25.108800591154747" as="targetPoint" />
          </mxGeometry>
        </mxCell>
        <mxCell id="5uYzXn4WJ4j_uTU6qq_i-172" value="" style="group;rotation=0;movable=1;resizable=1;rotatable=1;deletable=1;editable=1;locked=0;connectable=1;fontFamily=icocpeur;" parent="5uYzXn4WJ4j_uTU6qq_i-185" vertex="1" connectable="0">
          <mxGeometry x="0.1106377744133787" width="1686.5966252785736" height="317.34896963879476" as="geometry" />
        </mxCell>
        <mxCell id="5uYzXn4WJ4j_uTU6qq_i-173" value="" style="group;fontFamily=icocpeur;fontSize=68;rotation=0;movable=1;resizable=1;rotatable=1;deletable=1;editable=1;locked=0;connectable=1;" parent="5uYzXn4WJ4j_uTU6qq_i-172" vertex="1" connectable="0">
          <mxGeometry y="16.352072615866636" width="1274.464692773002" height="300.9968970229281" as="geometry" />
        </mxCell>
        <mxCell id="5uYzXn4WJ4j_uTU6qq_i-174" style="vsdxID=47;fillColor=none;gradientColor=none;shape=stencil(nZBLDoAgDERP0z3SIyjew0SURgSD+Lu9kMZoXLhwN9O+tukAlrNpJg1SzDH4QW/URgNYgZTkjA4UkwJUgGXng+6DX1zLfmoymdXo17xh5zmRJ6Q42BWCfc2oJfdAr+Yv+AP9Cb7OJ3H/2JG1HNGz/84klThPVCc=);strokeColor=none;labelBackgroundColor=none;rounded=0;html=1;whiteSpace=wrap;direction=east;fontFamily=icocpeur;fontSize=68;rotation=0;movable=1;resizable=1;rotatable=1;deletable=1;editable=1;locked=0;connectable=1;" parent="5uYzXn4WJ4j_uTU6qq_i-173" vertex="1">
          <mxGeometry y="4.672020747390467" width="1112.8255515549415" height="163.52072615866635" as="geometry" />
        </mxCell>
        <mxCell id="5uYzXn4WJ4j_uTU6qq_i-175" value="&lt;p style=&quot;margin: 17px 0px 0px; text-indent: 0px; direction: ltr; font-size: 68px;&quot;&gt;&lt;font style=&quot;font-size: 68px; color: rgb(0, 0, 0); direction: ltr; letter-spacing: 0px; line-height: 120%; opacity: 1;&quot;&gt;&lt;i style=&quot;font-size: 68px;&quot;&gt;КП 2-40 01 01&lt;/i&gt;&lt;/font&gt;&lt;font style=&quot;font-size: 68px; color: rgb(0, 0, 0); direction: ltr; letter-spacing: 0px; line-height: 120%; opacity: 1;&quot;&gt;&lt;i style=&quot;font-size: 68px;&quot;&gt;.3&lt;/i&gt;&lt;/font&gt;&lt;font style=&quot;font-size: 68px; color: rgb(0, 0, 0); direction: ltr; letter-spacing: 0px; line-height: 120%; opacity: 1;&quot;&gt;&lt;i style=&quot;font-size: 68px;&quot;&gt;5&lt;/i&gt;&lt;/font&gt;&lt;font style=&quot;font-size: 68px; color: rgb(0, 0, 0); direction: ltr; letter-spacing: 0px; line-height: 120%; opacity: 1;&quot;&gt;&lt;i style=&quot;font-size: 68px;&quot;&gt;.34&lt;/i&gt;&lt;/font&gt;&lt;font style=&quot;font-size: 68px; color: rgb(0, 0, 0); direction: ltr; letter-spacing: 0px; line-height: 120%; opacity: 1;&quot;&gt;&lt;i style=&quot;font-size: 68px;&quot;&gt;.&lt;/i&gt;&lt;/font&gt;&lt;font style=&quot;font-size: 68px; color: rgb(0, 0, 0); direction: ltr; letter-spacing: 0px; line-height: 120%; opacity: 1;&quot;&gt;&lt;i style=&quot;font-size: 68px;&quot;&gt;08&lt;/i&gt;&lt;/font&gt;&lt;font style=&quot;font-size: 68px; color: rgb(0, 0, 0); direction: ltr; letter-spacing: 0px; line-height: 120%; opacity: 1;&quot;&gt;&lt;i style=&quot;font-size: 68px;&quot;&gt;.22&lt;/i&gt;&lt;/font&gt;&lt;font style=&quot;font-size: 68px; color: rgb(0, 0, 0); direction: ltr; letter-spacing: 0px; line-height: 120%; opacity: 1;&quot;&gt;&lt;i style=&quot;font-size: 68px;&quot;&gt;&amp;nbsp;ГЧ&lt;br style=&quot;font-size: 68px;&quot;&gt;&lt;/i&gt;&lt;/font&gt;&lt;/p&gt;" style="text;vsdxID=47;fillColor=none;gradientColor=none;strokeColor=none;labelBackgroundColor=none;rounded=0;html=1;whiteSpace=wrap;verticalAlign=middle;align=center;rotation=180.09;;html=1;direction=east;fontFamily=icocpeur;fontSize=68;movable=1;resizable=1;rotatable=1;deletable=1;editable=1;locked=0;connectable=1;" parent="5uYzXn4WJ4j_uTU6qq_i-174" vertex="1">
          <mxGeometry width="1114.2108115776239" height="164.39283669817925" as="geometry" />
        </mxCell>
        <mxCell id="5uYzXn4WJ4j_uTU6qq_i-176" value="" style="verticalAlign=middle;align=center;vsdxID=42;fillColor=none;gradientColor=none;shape=stencil(nZBLDoAgDERP0z3SIyjew0SURgSD+Lu9kMZoXLhwN9O+tukAlrNpJg1SzDH4QW/URgNYgZTkjA4UkwJUgGXng+6DX1zLfmoymdXo17xh5zmRJ6Q42BWCfc2oJfdAr+Yv+AP9Cb7OJ3H/2JG1HNGz/84klThPVCc=);strokeColor=#000000;strokeWidth=3;spacingTop=-1;spacingBottom=-1;spacingLeft=-1;spacingRight=-1;labelBackgroundColor=none;rounded=0;html=1;whiteSpace=wrap;direction=east;fontFamily=icocpeur;fontSize=68;rotation=-180;movable=1;resizable=1;rotatable=1;deletable=1;editable=1;locked=0;connectable=1;" parent="5uYzXn4WJ4j_uTU6qq_i-172" vertex="1">
          <mxGeometry width="1122.2964073128558" height="171.69676246659967" as="geometry" />
        </mxCell>
        <mxCell id="5uYzXn4WJ4j_uTU6qq_i-177" value="" style="rounded=0;whiteSpace=wrap;html=1;movable=1;resizable=1;rotatable=1;deletable=1;editable=1;locked=0;connectable=1;fontSize=68;fontFamily=icocpeur;" parent="5uYzXn4WJ4j_uTU6qq_i-172" vertex="1">
          <mxGeometry width="1119.928693373377" height="170.52875727975209" as="geometry" />
        </mxCell>
        <mxCell id="5uYzXn4WJ4j_uTU6qq_i-178" value="&lt;font style=&quot;font-size: 68px;&quot; data-font-src=&quot;https://fonts.googleapis.com/css?family=Isocpeur&quot;&gt;&lt;font style=&quot;border-color: var(--border-color); font-size: 68px; letter-spacing: 0px; direction: ltr; line-height: 21.6px; opacity: 1;&quot;&gt;&lt;i style=&quot;border-color: var(--border-color); font-size: 68px;&quot;&gt;КП 2-40 01 01&lt;/i&gt;&lt;/font&gt;&lt;font style=&quot;border-color: var(--border-color); font-size: 68px; letter-spacing: 0px; direction: ltr; line-height: 21.6px; opacity: 1;&quot;&gt;&lt;i style=&quot;border-color: var(--border-color); font-size: 68px;&quot;&gt;.35&lt;/i&gt;&lt;/font&gt;&lt;font style=&quot;border-color: var(--border-color); font-size: 68px; letter-spacing: 0px; direction: ltr; line-height: 21.6px; opacity: 1;&quot;&gt;&lt;i style=&quot;border-color: var(--border-color); font-size: 68px;&quot;&gt;.40&lt;/i&gt;&lt;/font&gt;&lt;font style=&quot;border-color: var(--border-color); font-size: 68px; letter-spacing: 0px; direction: ltr; line-height: 21.6px; opacity: 1;&quot;&gt;&lt;i style=&quot;border-color: var(--border-color); font-size: 68px;&quot;&gt;.06&lt;/i&gt;&lt;/font&gt;&lt;font style=&quot;border-color: var(--border-color); font-size: 68px; letter-spacing: 0px; direction: ltr; line-height: 21.6px; opacity: 1;&quot;&gt;&lt;i style=&quot;border-color: var(--border-color); font-size: 68px;&quot;&gt;.24&lt;/i&gt;&lt;/font&gt;&lt;font style=&quot;border-color: var(--border-color); font-size: 68px; letter-spacing: 0px; direction: ltr; line-height: 21.6px; opacity: 1;&quot;&gt;&lt;i style=&quot;border-color: var(--border-color); font-size: 68px;&quot;&gt;&amp;nbsp;ГЧ&lt;/i&gt;&lt;/font&gt;&lt;/font&gt;" style="text;html=1;align=center;verticalAlign=middle;resizable=1;points=[];autosize=1;strokeColor=none;fillColor=none;movable=1;rotatable=1;deletable=1;editable=1;locked=0;connectable=1;rotation=-180;fontSize=68;fontFamily=icocpeur;" parent="5uYzXn4WJ4j_uTU6qq_i-172" vertex="1">
          <mxGeometry x="137.96650429799422" y="49.26739721531294" width="870" height="100" as="geometry" />
        </mxCell>
        <mxCell id="5uYzXn4WJ4j_uTU6qq_i-179" value="&lt;font data-font-src=&quot;https://fonts.googleapis.com/css?family=Isocpeur&quot; style=&quot;font-size: 57px;&quot;&gt;&lt;i style=&quot;font-size: 57px;&quot;&gt;Разработка программного продукта &quot;Изучаем азбуку&quot;&lt;/i&gt;&lt;/font&gt;" style="text;html=1;strokeColor=none;fillColor=none;align=center;verticalAlign=middle;whiteSpace=wrap;rounded=0;fontSize=57;fontFamily=icocpeur;" parent="5uYzXn4WJ4j_uTU6qq_i-185" vertex="1">
          <mxGeometry x="8014.345749761222" y="6574.0859370073185" width="843.2983126392868" height="146.59505249390003" as="geometry" />
        </mxCell>
        <mxCell id="5uYzXn4WJ4j_uTU6qq_i-180" value="" style="endArrow=none;html=1;rounded=0;fontFamily=icocpeur;entryX=0;entryY=0.5;entryDx=0;entryDy=0;strokeWidth=3;" parent="5uYzXn4WJ4j_uTU6qq_i-185" target="5uYzXn4WJ4j_uTU6qq_i-173" edge="1">
          <mxGeometry width="50" height="50" relative="1" as="geometry">
            <mxPoint y="6749.999999999999" as="sourcePoint" />
            <mxPoint x="5394.097421203438" y="3730.141918625658" as="targetPoint" />
          </mxGeometry>
        </mxCell>
        <mxCell id="5uYzXn4WJ4j_uTU6qq_i-181" value="" style="endArrow=none;html=1;rounded=0;strokeWidth=3;fontFamily=icocpeur;entryX=1;entryY=0;entryDx=0;entryDy=0;" parent="5uYzXn4WJ4j_uTU6qq_i-185" target="5uYzXn4WJ4j_uTU6qq_i-177" edge="1">
          <mxGeometry width="50" height="50" relative="1" as="geometry">
            <mxPoint x="9459.999999999998" y="0.7637831808427111" as="sourcePoint" />
            <mxPoint x="5394.097421203438" y="1384.6210787232587" as="targetPoint" />
          </mxGeometry>
        </mxCell>
        <mxCell id="5uYzXn4WJ4j_uTU6qq_i-182" value="" style="endArrow=none;html=1;rounded=0;strokeWidth=3;fontFamily=icocpeur;exitX=1;exitY=1;exitDx=0;exitDy=0;" parent="5uYzXn4WJ4j_uTU6qq_i-185" source="5uYzXn4WJ4j_uTU6qq_i-123" edge="1">
          <mxGeometry width="50" height="50" relative="1" as="geometry">
            <mxPoint x="9399.76440624005" y="6046.34374802928" as="sourcePoint" />
            <mxPoint x="9459.999999999998" y="6.62758528059871" as="targetPoint" />
          </mxGeometry>
        </mxCell>
        <mxCell id="5uYzXn4WJ4j_uTU6qq_i-210" value="" style="group;fontFamily=icocpeur;" parent="5uYzXn4WJ4j_uTU6qq_i-185" vertex="1" connectable="0">
          <mxGeometry x="1273.5454545454545" y="747.5245901639344" width="7708.0872727272745" height="5771.475409836066" as="geometry" />
        </mxCell>
        <mxCell id="x-hWQsG4ySw8Oo5mr3VZ-33" value="&lt;font style=&quot;vertical-align: inherit; font-size: 68px;&quot;&gt;&lt;font style=&quot;vertical-align: inherit; font-size: 68px;&quot;&gt;Конец&lt;/font&gt;&lt;/font&gt;" style="rounded=1;whiteSpace=wrap;html=1;arcSize=41;strokeWidth=4;shadow=1;container=0;fontSize=68;align=center;fontFamily=icocpeur;" parent="5uYzXn4WJ4j_uTU6qq_i-210" vertex="1">
          <mxGeometry x="469.09090909090946" y="5062.470819672132" width="603.6363636363636" height="298.5245901639344" as="geometry" />
        </mxCell>
        <mxCell id="x-hWQsG4ySw8Oo5mr3VZ-34" value="" style="endArrow=none;html=1;rounded=0;exitX=0.5;exitY=0;exitDx=0;exitDy=0;shadow=1;fontSize=68;align=center;strokeWidth=4;fontFamily=icocpeur;" parent="5uYzXn4WJ4j_uTU6qq_i-210" edge="1">
          <mxGeometry width="50" height="50" relative="1" as="geometry">
            <mxPoint x="773.2690909090902" y="5064.510819672131" as="sourcePoint" />
            <mxPoint x="773.2690909090904" y="4965.002622950819" as="targetPoint" />
          </mxGeometry>
        </mxCell>
        <mxCell id="x-hWQsG4ySw8Oo5mr3VZ-3" value="&lt;font style=&quot;vertical-align: inherit; font-size: 68px;&quot;&gt;&lt;font face=&quot;icocpeur&quot; style=&quot;vertical-align: inherit; font-size: 68px;&quot;&gt;Начало&lt;/font&gt;&lt;/font&gt;" style="rounded=1;whiteSpace=wrap;html=1;arcSize=41;strokeWidth=4;shadow=1;container=0;fontSize=68;align=center;fontFamily=icocpeur;" parent="5uYzXn4WJ4j_uTU6qq_i-210" vertex="1">
          <mxGeometry x="469.09090909090946" y="-290" width="603.6363636363636" height="298.5245901639344" as="geometry" />
        </mxCell>
        <mxCell id="x-hWQsG4ySw8Oo5mr3VZ-14" value="Заставка" style="shape=display;whiteSpace=wrap;html=1;shadow=1;container=0;fontSize=68;align=center;strokeWidth=4;fontFamily=icocpeur;" parent="5uYzXn4WJ4j_uTU6qq_i-210" vertex="1">
          <mxGeometry x="469.09090909090946" y="108.0327868852462" width="603.6363636363636" height="298.5245901639344" as="geometry" />
        </mxCell>
        <mxCell id="x-hWQsG4ySw8Oo5mr3VZ-15" value="Главная форма" style="shape=display;whiteSpace=wrap;html=1;shadow=1;container=0;fontSize=68;align=center;strokeWidth=4;fontFamily=icocpeur;" parent="5uYzXn4WJ4j_uTU6qq_i-210" vertex="1">
          <mxGeometry x="469.09090909090946" y="506.06557377049216" width="603.6363636363636" height="298.5245901639344" as="geometry" />
        </mxCell>
        <mxCell id="x-hWQsG4ySw8Oo5mr3VZ-21" value="Алфавит" style="shape=display;whiteSpace=wrap;html=1;shadow=1;container=0;fontSize=68;align=center;strokeWidth=4;fontFamily=icocpeur;" parent="5uYzXn4WJ4j_uTU6qq_i-210" vertex="1">
          <mxGeometry x="3415.5909090909095" y="1036.3606557377045" width="603.6363636363636" height="298.5245901639344" as="geometry" />
        </mxCell>
        <mxCell id="x-hWQsG4ySw8Oo5mr3VZ-24" value="" style="endArrow=none;html=1;rounded=0;entryX=0.5;entryY=1;entryDx=0;entryDy=0;shadow=1;fontSize=68;align=center;strokeWidth=4;fontFamily=icocpeur;" parent="5uYzXn4WJ4j_uTU6qq_i-210" target="x-hWQsG4ySw8Oo5mr3VZ-3" edge="1">
          <mxGeometry width="50" height="50" relative="1" as="geometry">
            <mxPoint x="770.9090909090905" y="108.0327868852462" as="sourcePoint" />
            <mxPoint x="959.545454545455" y="1103.114754098361" as="targetPoint" />
          </mxGeometry>
        </mxCell>
        <mxCell id="x-hWQsG4ySw8Oo5mr3VZ-26" value="" style="endArrow=none;html=1;rounded=0;entryX=0;entryY=0;entryDx=85;entryDy=60;entryPerimeter=0;shadow=1;fontSize=68;align=center;strokeWidth=4;fontFamily=icocpeur;" parent="5uYzXn4WJ4j_uTU6qq_i-210" edge="1">
          <mxGeometry width="50" height="50" relative="1" as="geometry">
            <mxPoint x="774.681818181818" y="506.06557377049216" as="sourcePoint" />
            <mxPoint x="774.681818181818" y="406.55737704918033" as="targetPoint" />
          </mxGeometry>
        </mxCell>
        <mxCell id="x-hWQsG4ySw8Oo5mr3VZ-39" value="" style="endArrow=none;html=1;rounded=0;shadow=1;fontSize=68;align=center;strokeWidth=4;fontFamily=icocpeur;startArrow=open;startFill=0;" parent="5uYzXn4WJ4j_uTU6qq_i-210" edge="1">
          <mxGeometry width="50" height="50" relative="1" as="geometry">
            <mxPoint x="-1039.5454545454545" y="456.47540983606564" as="sourcePoint" />
            <mxPoint x="-1039.5454545454545" y="2132.4754098360654" as="targetPoint" />
            <Array as="points">
              <mxPoint x="-1040" y="456.31147540983625" />
              <mxPoint x="-1040" y="1202.6229508196714" />
            </Array>
          </mxGeometry>
        </mxCell>
        <mxCell id="x-hWQsG4ySw8Oo5mr3VZ-40" value="" style="endArrow=none;html=1;rounded=0;shadow=1;fontSize=68;align=center;strokeWidth=4;fontFamily=icocpeur;" parent="5uYzXn4WJ4j_uTU6qq_i-210" edge="1">
          <mxGeometry width="50" height="50" relative="1" as="geometry">
            <mxPoint x="3717.4090909090896" y="1036.3606557377045" as="sourcePoint" />
            <mxPoint x="3717.4090909090896" y="887.0983606557379" as="targetPoint" />
          </mxGeometry>
        </mxCell>
        <mxCell id="x-hWQsG4ySw8Oo5mr3VZ-62" value="" style="endArrow=none;html=1;rounded=0;shadow=1;fontSize=68;align=center;strokeWidth=4;fontFamily=icocpeur;" parent="5uYzXn4WJ4j_uTU6qq_i-210" edge="1">
          <mxGeometry width="50" height="50" relative="1" as="geometry">
            <mxPoint x="3717.4090909090896" y="1434.393442622951" as="sourcePoint" />
            <mxPoint x="3717.4090909090896" y="1334.885245901639" as="targetPoint" />
          </mxGeometry>
        </mxCell>
        <mxCell id="x-hWQsG4ySw8Oo5mr3VZ-63" value="alfavit" style="shape=display;whiteSpace=wrap;html=1;shadow=1;container=0;fontSize=68;align=center;strokeWidth=4;fontFamily=icocpeur;" parent="5uYzXn4WJ4j_uTU6qq_i-210" vertex="1">
          <mxGeometry x="3415.5909090909095" y="1434.393442622951" width="603.6363636363636" height="298.5245901639344" as="geometry" />
        </mxCell>
        <mxCell id="x-hWQsG4ySw8Oo5mr3VZ-64" value="Выберите букву" style="shape=manualInput;whiteSpace=wrap;html=1;size=93;shadow=1;strokeWidth=4;container=0;fontSize=68;align=center;fontFamily=icocpeur;" parent="5uYzXn4WJ4j_uTU6qq_i-210" vertex="1">
          <mxGeometry x="2962.8636363636365" y="1926.9590163934429" width="603.6363636363636" height="398.03278688524586" as="geometry" />
        </mxCell>
        <mxCell id="x-hWQsG4ySw8Oo5mr3VZ-65" value="Вывод информации о букве" style="rounded=0;whiteSpace=wrap;html=1;shadow=1;container=0;fontSize=68;align=center;strokeWidth=4;fontFamily=icocpeur;" parent="5uYzXn4WJ4j_uTU6qq_i-210" vertex="1">
          <mxGeometry x="2623.3181818181815" y="2927.0163934426228" width="603.6363636363636" height="298.5245901639344" as="geometry" />
        </mxCell>
        <mxCell id="x-hWQsG4ySw8Oo5mr3VZ-66" value="Вывод звучания буквы" style="rounded=0;whiteSpace=wrap;html=1;shadow=1;container=0;fontSize=68;align=center;strokeWidth=4;fontFamily=icocpeur;" parent="5uYzXn4WJ4j_uTU6qq_i-210" vertex="1">
          <mxGeometry x="3302.4090909090914" y="3325.04918032787" width="603.6363636363636" height="298.5245901639344" as="geometry" />
        </mxCell>
        <mxCell id="x-hWQsG4ySw8Oo5mr3VZ-67" value="" style="endArrow=none;html=1;rounded=0;shadow=1;fontSize=68;align=center;strokeWidth=4;fontFamily=icocpeur;exitX=0.496;exitY=0.124;exitDx=0;exitDy=0;exitPerimeter=0;" parent="5uYzXn4WJ4j_uTU6qq_i-210" source="x-hWQsG4ySw8Oo5mr3VZ-64" edge="1">
          <mxGeometry width="50" height="50" relative="1" as="geometry">
            <mxPoint x="3264.4545454545455" y="1944.4754098360656" as="sourcePoint" />
            <mxPoint x="3264.6818181818176" y="1832.4262295081974" as="targetPoint" />
            <Array as="points" />
          </mxGeometry>
        </mxCell>
        <mxCell id="x-hWQsG4ySw8Oo5mr3VZ-68" value="" style="endArrow=none;html=1;rounded=0;entryX=0.5;entryY=1;entryDx=0;entryDy=0;shadow=1;fontSize=68;align=center;strokeWidth=4;fontFamily=icocpeur;startArrow=open;startFill=0;" parent="5uYzXn4WJ4j_uTU6qq_i-210" edge="1">
          <mxGeometry width="50" height="50" relative="1" as="geometry">
            <mxPoint x="2925.4545454545455" y="2827.4754098360654" as="sourcePoint" />
            <mxPoint x="3264.6818181818176" y="2727.999999999999" as="targetPoint" />
            <Array as="points">
              <mxPoint x="2925.1363636363644" y="2827.508196721311" />
              <mxPoint x="3264.6818181818176" y="2827.508196721311" />
            </Array>
          </mxGeometry>
        </mxCell>
        <mxCell id="x-hWQsG4ySw8Oo5mr3VZ-69" value="" style="endArrow=none;html=1;rounded=0;shadow=1;fontSize=68;align=center;strokeWidth=4;fontFamily=icocpeur;" parent="5uYzXn4WJ4j_uTU6qq_i-210" edge="1">
          <mxGeometry width="50" height="50" relative="1" as="geometry">
            <mxPoint x="3604.2272727272734" y="2927.0163934426228" as="sourcePoint" />
            <mxPoint x="3264.6818181818176" y="2827.508196721311" as="targetPoint" />
            <Array as="points">
              <mxPoint x="3604.2272727272734" y="2827.508196721311" />
            </Array>
          </mxGeometry>
        </mxCell>
        <mxCell id="x-hWQsG4ySw8Oo5mr3VZ-71" value="" style="endArrow=none;html=1;rounded=0;shadow=1;fontSize=68;align=center;strokeWidth=4;fontFamily=icocpeur;" parent="5uYzXn4WJ4j_uTU6qq_i-210" edge="1">
          <mxGeometry width="50" height="50" relative="1" as="geometry">
            <mxPoint x="3717.4090909090896" y="1832.4262295081974" as="sourcePoint" />
            <mxPoint x="3717.4090909090896" y="1732.9180327868855" as="targetPoint" />
          </mxGeometry>
        </mxCell>
        <mxCell id="x-hWQsG4ySw8Oo5mr3VZ-72" value="" style="endArrow=none;html=1;rounded=0;shadow=1;fontSize=68;align=center;strokeWidth=4;fontFamily=icocpeur;" parent="5uYzXn4WJ4j_uTU6qq_i-210" edge="1">
          <mxGeometry width="50" height="50" relative="1" as="geometry">
            <mxPoint x="3717.4090909090896" y="1832.4262295081974" as="sourcePoint" />
            <mxPoint x="4170.136363636364" y="1931.9344262295092" as="targetPoint" />
            <Array as="points">
              <mxPoint x="4170.136363636364" y="1832.4262295081974" />
            </Array>
          </mxGeometry>
        </mxCell>
        <mxCell id="x-hWQsG4ySw8Oo5mr3VZ-73" value="" style="endArrow=none;html=1;rounded=0;shadow=1;fontSize=68;align=center;strokeWidth=4;fontFamily=icocpeur;startArrow=open;startFill=0;" parent="5uYzXn4WJ4j_uTU6qq_i-210" edge="1">
          <mxGeometry width="50" height="50" relative="1" as="geometry">
            <mxPoint x="3264.6818181818176" y="1832.4262295081974" as="sourcePoint" />
            <mxPoint x="3717.4090909090896" y="1832.4262295081974" as="targetPoint" />
          </mxGeometry>
        </mxCell>
        <mxCell id="x-hWQsG4ySw8Oo5mr3VZ-75" value="vygruzka" style="shape=display;whiteSpace=wrap;html=1;shadow=1;container=0;fontSize=68;align=center;strokeWidth=4;fontFamily=icocpeur;" parent="5uYzXn4WJ4j_uTU6qq_i-210" vertex="1">
          <mxGeometry x="2962.8636363636365" y="2429.4754098360663" width="603.6363636363636" height="298.5245901639344" as="geometry" />
        </mxCell>
        <mxCell id="x-hWQsG4ySw8Oo5mr3VZ-76" value="" style="endArrow=none;html=1;rounded=0;exitX=0.498;exitY=0.022;exitDx=0;exitDy=0;exitPerimeter=0;shadow=1;fontSize=68;align=center;strokeWidth=4;fontFamily=icocpeur;" parent="5uYzXn4WJ4j_uTU6qq_i-210" edge="1">
          <mxGeometry width="50" height="50" relative="1" as="geometry">
            <mxPoint x="3263.474545454546" y="2431.0675409836076" as="sourcePoint" />
            <mxPoint x="3264.6818181818176" y="2324.991803278689" as="targetPoint" />
          </mxGeometry>
        </mxCell>
        <mxCell id="x-hWQsG4ySw8Oo5mr3VZ-77" value="" style="endArrow=none;html=1;rounded=0;entryX=0.5;entryY=1;entryDx=0;entryDy=0;shadow=1;fontSize=68;align=center;strokeWidth=4;fontFamily=icocpeur;" parent="5uYzXn4WJ4j_uTU6qq_i-210" target="x-hWQsG4ySw8Oo5mr3VZ-65" edge="1">
          <mxGeometry width="50" height="50" relative="1" as="geometry">
            <mxPoint x="2925.1363636363644" y="3325.04918032787" as="sourcePoint" />
            <mxPoint x="3491.0454545454536" y="2678.245901639344" as="targetPoint" />
          </mxGeometry>
        </mxCell>
        <mxCell id="x-hWQsG4ySw8Oo5mr3VZ-78" value="" style="endArrow=none;html=1;rounded=0;entryX=0.5;entryY=1;entryDx=0;entryDy=0;shadow=1;fontSize=68;align=center;strokeWidth=4;fontFamily=icocpeur;" parent="5uYzXn4WJ4j_uTU6qq_i-210" edge="1">
          <mxGeometry width="50" height="50" relative="1" as="geometry">
            <mxPoint x="3603.0577272727273" y="3723.0819672131147" as="sourcePoint" />
            <mxPoint x="3603.0577272727273" y="3623.573770491803" as="targetPoint" />
          </mxGeometry>
        </mxCell>
        <mxCell id="x-hWQsG4ySw8Oo5mr3VZ-79" value="*.htm" style="strokeWidth=4;html=1;shape=mxgraph.flowchart.direct_data;whiteSpace=wrap;spacing=2;shadow=1;container=0;fontSize=68;align=center;fontFamily=icocpeur;" parent="5uYzXn4WJ4j_uTU6qq_i-210" vertex="1">
          <mxGeometry x="2623.3181818181815" y="3325.04918032787" width="603.6363636363636" height="298.5245901639344" as="geometry" />
        </mxCell>
        <mxCell id="x-hWQsG4ySw8Oo5mr3VZ-80" value="*.mp3" style="strokeWidth=4;html=1;shape=mxgraph.flowchart.direct_data;whiteSpace=wrap;spacing=2;shadow=1;container=0;fontSize=68;align=center;fontFamily=icocpeur;" parent="5uYzXn4WJ4j_uTU6qq_i-210" vertex="1">
          <mxGeometry x="3302.4090909090914" y="3723.0819672131147" width="603.6363636363636" height="298.5245901639344" as="geometry" />
        </mxCell>
        <mxCell id="x-hWQsG4ySw8Oo5mr3VZ-110" value="Звучание" style="shape=display;whiteSpace=wrap;html=1;shadow=1;container=0;fontSize=68;align=center;strokeWidth=4;fontFamily=icocpeur;" parent="5uYzXn4WJ4j_uTU6qq_i-210" vertex="1">
          <mxGeometry x="3302.4090909090914" y="2927.0163934426228" width="603.6363636363636" height="298.5245901639344" as="geometry" />
        </mxCell>
        <mxCell id="x-hWQsG4ySw8Oo5mr3VZ-111" value="" style="endArrow=none;html=1;rounded=0;shadow=1;fontSize=68;align=center;strokeWidth=4;fontFamily=icocpeur;" parent="5uYzXn4WJ4j_uTU6qq_i-210" edge="1">
          <mxGeometry width="50" height="50" relative="1" as="geometry">
            <mxPoint x="3611.7727272727275" y="3325.04918032787" as="sourcePoint" />
            <mxPoint x="3611.7727272727275" y="3225.5409836065564" as="targetPoint" />
          </mxGeometry>
        </mxCell>
        <mxCell id="x-hWQsG4ySw8Oo5mr3VZ-112" value="" style="endArrow=none;html=1;rounded=0;entryX=0.504;entryY=0.982;entryDx=0;entryDy=0;entryPerimeter=0;shadow=1;fontSize=68;align=center;strokeWidth=4;fontFamily=icocpeur;startArrow=open;startFill=0;" parent="5uYzXn4WJ4j_uTU6qq_i-210" edge="1">
          <mxGeometry width="50" height="50" relative="1" as="geometry">
            <mxPoint x="3736.4545454545455" y="4220.475409836065" as="sourcePoint" />
            <mxPoint x="4176.323636363635" y="2230.060983606558" as="targetPoint" />
            <Array as="points">
              <mxPoint x="4177.681818181818" y="4220.622950819672" />
            </Array>
          </mxGeometry>
        </mxCell>
        <mxCell id="x-hWQsG4ySw8Oo5mr3VZ-113" value="" style="endArrow=none;html=1;rounded=0;entryX=0.51;entryY=1.004;entryDx=0;entryDy=0;entryPerimeter=0;shadow=1;fontSize=68;align=center;strokeWidth=4;fontFamily=icocpeur;" parent="5uYzXn4WJ4j_uTU6qq_i-210" target="x-hWQsG4ySw8Oo5mr3VZ-79" edge="1">
          <mxGeometry width="50" height="50" relative="1" as="geometry">
            <mxPoint x="3276.4545454545455" y="4121.475409836065" as="sourcePoint" />
            <mxPoint x="3687.2272727272734" y="3723.0819672131147" as="targetPoint" />
            <Array as="points">
              <mxPoint x="2932.6818181818185" y="4121.11475409836" />
            </Array>
          </mxGeometry>
        </mxCell>
        <mxCell id="x-hWQsG4ySw8Oo5mr3VZ-114" value="" style="endArrow=none;html=1;rounded=0;shadow=1;fontSize=68;align=center;strokeWidth=4;fontFamily=icocpeur;" parent="5uYzXn4WJ4j_uTU6qq_i-210" edge="1">
          <mxGeometry width="50" height="50" relative="1" as="geometry">
            <mxPoint x="3734.4545454545455" y="4729.475409836065" as="sourcePoint" />
            <mxPoint x="3734.4545454545455" y="4219.475409836065" as="targetPoint" />
            <Array as="points">
              <mxPoint x="3734.4545454545455" y="4766.475409836065" />
              <mxPoint x="3734.4545454545455" y="4729.475409836065" />
            </Array>
          </mxGeometry>
        </mxCell>
        <mxCell id="5uYzXn4WJ4j_uTU6qq_i-211" value="" style="group;fontFamily=icocpeur;fontSize=68;" parent="5uYzXn4WJ4j_uTU6qq_i-210" vertex="1" connectable="0">
          <mxGeometry x="-1423.5454545454545" y="-367.52459016393436" width="8222.64" height="5058.523606557377" as="geometry" />
        </mxCell>
        <mxCell id="x-hWQsG4ySw8Oo5mr3VZ-70" value="Главное меню" style="shape=display;whiteSpace=wrap;html=1;shadow=1;container=0;fontSize=68;align=center;strokeWidth=4;fontFamily=icocpeur;" parent="5uYzXn4WJ4j_uTU6qq_i-211" vertex="1">
          <mxGeometry x="5288.090909090909" y="2299.459016393443" width="603.6363636363636" height="298.5245901639344" as="geometry" />
        </mxCell>
        <mxCell id="WG2nYaRiDnqnp09X8Q_l-1" value="" style="endArrow=none;html=1;rounded=0;fontSize=68;align=center;strokeWidth=4;fontFamily=icocpeur;" parent="5uYzXn4WJ4j_uTU6qq_i-211" edge="1">
          <mxGeometry width="50" height="50" relative="1" as="geometry">
            <mxPoint x="7585.181818181819" y="1349.535737704918" as="sourcePoint" />
            <mxPoint x="2198" y="1253" as="targetPoint" />
            <Array as="points">
              <mxPoint x="7585.181818181819" y="1255.0029508196724" />
            </Array>
          </mxGeometry>
        </mxCell>
        <mxCell id="zg1p9sOW_J3XvHUaNTcT-2" value="" style="endArrow=open;html=1;rounded=0;strokeWidth=4;fontFamily=icocpeur;fontSize=68;startArrow=none;startFill=0;endFill=0;" parent="5uYzXn4WJ4j_uTU6qq_i-211" edge="1">
          <mxGeometry width="50" height="50" relative="1" as="geometry">
            <mxPoint x="6453" y="3799.7" as="sourcePoint" />
            <mxPoint x="6165" y="3800" as="targetPoint" />
          </mxGeometry>
        </mxCell>
        <mxCell id="zg1p9sOW_J3XvHUaNTcT-4" value="ДА" style="text;html=1;align=center;verticalAlign=middle;whiteSpace=wrap;rounded=0;fontSize=68;fontFamily=icocpeur;" parent="5uYzXn4WJ4j_uTU6qq_i-211" vertex="1">
          <mxGeometry x="6287" y="3734.8900000000003" width="112.3" height="42.63" as="geometry" />
        </mxCell>
        <mxCell id="zg1p9sOW_J3XvHUaNTcT-8" value="Ячейки исчезают" style="rounded=0;whiteSpace=wrap;html=1;shadow=1;container=0;fontSize=68;align=center;strokeWidth=4;fontFamily=icocpeur;" parent="5uYzXn4WJ4j_uTU6qq_i-211" vertex="1">
          <mxGeometry x="5867.996363636365" y="3922.9990163934435" width="603.6363636363636" height="298.5245901639344" as="geometry" />
        </mxCell>
        <mxCell id="zg1p9sOW_J3XvHUaNTcT-9" value="&lt;span style=&quot;font-size: 68px;&quot;&gt;Все ячейки&amp;nbsp;&lt;/span&gt;&lt;div&gt;&lt;span style=&quot;font-size: 68px;&quot;&gt;открыты&lt;/span&gt;&lt;/div&gt;" style="rhombus;whiteSpace=wrap;html=1;strokeWidth=4;fontFamily=icocpeur;fontSize=68;" parent="5uYzXn4WJ4j_uTU6qq_i-211" vertex="1">
          <mxGeometry x="6452.999999999999" y="4425" width="605.33" height="470" as="geometry" />
        </mxCell>
        <mxCell id="qz_dlfx-ycx6K2K1K7yL-104" value="&lt;font style=&quot;font-size: 68px;&quot;&gt;Картинки&amp;nbsp;&lt;/font&gt;&lt;div&gt;&lt;font style=&quot;font-size: 68px;&quot;&gt;совпадают&lt;/font&gt;&lt;/div&gt;" style="rhombus;whiteSpace=wrap;html=1;strokeWidth=4;fontFamily=icocpeur;fontSize=68;" parent="5uYzXn4WJ4j_uTU6qq_i-211" vertex="1">
          <mxGeometry x="6453.999999999999" y="3565" width="605.33" height="470" as="geometry" />
        </mxCell>
        <mxCell id="zg1p9sOW_J3XvHUaNTcT-3" value="&lt;font style=&quot;font-size: 68px;&quot;&gt;НЕТ&lt;/font&gt;" style="text;html=1;align=center;verticalAlign=middle;whiteSpace=wrap;rounded=0;fontFamily=icocpeur;fontSize=68;" parent="5uYzXn4WJ4j_uTU6qq_i-211" vertex="1">
          <mxGeometry x="7168.700000000001" y="3741.2" width="60" height="30" as="geometry" />
        </mxCell>
        <mxCell id="zg1p9sOW_J3XvHUaNTcT-7" value="Переворачиваются в исходное положение" style="rounded=0;whiteSpace=wrap;html=1;shadow=1;container=0;fontSize=68;align=center;strokeWidth=4;fontFamily=icocpeur;" parent="5uYzXn4WJ4j_uTU6qq_i-211" vertex="1">
          <mxGeometry x="7043.996363636365" y="3922.9990163934426" width="603.6363636363636" height="298.5245901639344" as="geometry" />
        </mxCell>
        <mxCell id="zg1p9sOW_J3XvHUaNTcT-12" value="Поиск парных картинок" style="rounded=0;whiteSpace=wrap;html=1;shadow=1;container=0;fontSize=68;align=center;strokeWidth=4;fontFamily=icocpeur;" parent="5uYzXn4WJ4j_uTU6qq_i-211" vertex="1">
          <mxGeometry x="6458.006363636365" y="3215.9990163934435" width="603.6363636363636" height="298.5245901639344" as="geometry" />
        </mxCell>
        <mxCell id="ENMlwuZmuTnJvzadjcck-7" value="ДА" style="text;html=1;align=center;verticalAlign=middle;whiteSpace=wrap;rounded=0;fontSize=68;fontFamily=icocpeur;" parent="5uYzXn4WJ4j_uTU6qq_i-211" vertex="1">
          <mxGeometry x="7138.33" y="4594" width="112.3" height="42.63" as="geometry" />
        </mxCell>
        <mxCell id="ENMlwuZmuTnJvzadjcck-8" value="&lt;font style=&quot;font-size: 68px;&quot;&gt;НЕТ&lt;/font&gt;" style="text;html=1;align=center;verticalAlign=middle;whiteSpace=wrap;rounded=0;fontFamily=icocpeur;fontSize=68;" parent="5uYzXn4WJ4j_uTU6qq_i-211" vertex="1">
          <mxGeometry x="6317.000000000001" y="4601.64" width="60" height="30" as="geometry" />
        </mxCell>
        <mxCell id="ENMlwuZmuTnJvzadjcck-9" value="" style="endArrow=none;html=1;rounded=0;strokeWidth=4;fontFamily=icocpeur;fontSize=68;" parent="5uYzXn4WJ4j_uTU6qq_i-211" edge="1">
          <mxGeometry width="50" height="50" relative="1" as="geometry">
            <mxPoint x="5799" y="3193" as="sourcePoint" />
            <mxPoint x="6759" y="3193" as="targetPoint" />
            <Array as="points">
              <mxPoint x="5799" y="3193" />
            </Array>
          </mxGeometry>
        </mxCell>
        <mxCell id="x-hWQsG4ySw8Oo5mr3VZ-107" value="Играть" style="shape=display;whiteSpace=wrap;html=1;container=0;fontSize=68;align=center;strokeWidth=4;fontFamily=icocpeur;" parent="5uYzXn4WJ4j_uTU6qq_i-211" vertex="1">
          <mxGeometry x="7282.003636363635" y="1351.0011475409835" width="603.6363636363636" height="298.5245901639344" as="geometry" />
        </mxCell>
        <mxCell id="x-hWQsG4ySw8Oo5mr3VZ-108" value="" style="endArrow=none;html=1;rounded=0;fontSize=68;align=center;strokeWidth=4;fontFamily=icocpeur;" parent="5uYzXn4WJ4j_uTU6qq_i-211" edge="1">
          <mxGeometry width="50" height="50" relative="1" as="geometry">
            <mxPoint x="7583.821818181818" y="1749.0339344262297" as="sourcePoint" />
            <mxPoint x="7583.821818181818" y="1649.525737704918" as="targetPoint" />
          </mxGeometry>
        </mxCell>
        <mxCell id="x-hWQsG4ySw8Oo5mr3VZ-109" value="game1" style="shape=display;whiteSpace=wrap;html=1;container=0;fontSize=68;align=center;strokeWidth=4;fontFamily=icocpeur;" parent="5uYzXn4WJ4j_uTU6qq_i-211" vertex="1">
          <mxGeometry x="7282.003636363635" y="1749.0339344262297" width="603.6363636363636" height="298.5245901639344" as="geometry" />
        </mxCell>
        <mxCell id="qz_dlfx-ycx6K2K1K7yL-3" value="Создание поля 4х4" style="rounded=0;whiteSpace=wrap;html=1;shadow=1;container=0;fontSize=68;align=center;strokeWidth=4;fontFamily=icocpeur;" parent="5uYzXn4WJ4j_uTU6qq_i-211" vertex="1">
          <mxGeometry x="6458.006363636365" y="2167.049016393443" width="603.6363636363636" height="298.5245901639344" as="geometry" />
        </mxCell>
        <mxCell id="qz_dlfx-ycx6K2K1K7yL-101" value="Выгрузка картинкок" style="rounded=0;whiteSpace=wrap;html=1;shadow=1;container=0;fontSize=68;align=center;strokeWidth=4;fontFamily=icocpeur;" parent="5uYzXn4WJ4j_uTU6qq_i-211" vertex="1">
          <mxGeometry x="6458.006363636365" y="2517.049016393443" width="603.6363636363636" height="298.5245901639344" as="geometry" />
        </mxCell>
        <mxCell id="qz_dlfx-ycx6K2K1K7yL-102" value="&amp;nbsp; &amp;nbsp; &amp;nbsp; &amp;nbsp; &amp;nbsp; *.bmp" style="strokeWidth=4;html=1;shape=mxgraph.flowchart.direct_data;whiteSpace=wrap;spacing=2;shadow=1;container=0;fontSize=68;align=left;fontFamily=icocpeur;" parent="5uYzXn4WJ4j_uTU6qq_i-211" vertex="1">
          <mxGeometry x="6458.003636363636" y="2866.003770491804" width="603.6363636363636" height="298.5245901639344" as="geometry" />
        </mxCell>
        <mxCell id="ENMlwuZmuTnJvzadjcck-11" value="" style="endArrow=none;html=1;rounded=0;entryX=0.529;entryY=1.003;entryDx=0;entryDy=0;entryPerimeter=0;strokeWidth=4;fontFamily=icocpeur;fontSize=68;startArrow=open;startFill=0;" parent="5uYzXn4WJ4j_uTU6qq_i-211" target="x-hWQsG4ySw8Oo5mr3VZ-109" edge="1">
          <mxGeometry width="50" height="50" relative="1" as="geometry">
            <mxPoint x="6760" y="2100" as="sourcePoint" />
            <mxPoint x="7117.3099999999995" y="2048.56" as="targetPoint" />
            <Array as="points">
              <mxPoint x="6760" y="2100" />
              <mxPoint x="7601" y="2103" />
            </Array>
          </mxGeometry>
        </mxCell>
        <mxCell id="5uYzXn4WJ4j_uTU6qq_i-192" value="" style="endArrow=none;html=1;rounded=0;entryX=0.5;entryY=1;entryDx=0;entryDy=0;exitX=0.5;exitY=0;exitDx=0;exitDy=0;strokeWidth=4;fontFamily=icocpeur;fontSize=68;" parent="5uYzXn4WJ4j_uTU6qq_i-211" source="qz_dlfx-ycx6K2K1K7yL-101" target="qz_dlfx-ycx6K2K1K7yL-3" edge="1">
          <mxGeometry width="50" height="50" relative="1" as="geometry">
            <mxPoint x="6778" y="2763" as="sourcePoint" />
            <mxPoint x="6828" y="2713" as="targetPoint" />
          </mxGeometry>
        </mxCell>
        <mxCell id="5uYzXn4WJ4j_uTU6qq_i-195" value="" style="endArrow=none;html=1;rounded=0;entryX=0.5;entryY=1;entryDx=0;entryDy=0;exitX=0.5;exitY=0;exitDx=0;exitDy=0;strokeWidth=4;fontFamily=icocpeur;fontSize=68;" parent="5uYzXn4WJ4j_uTU6qq_i-211" edge="1">
          <mxGeometry width="50" height="50" relative="1" as="geometry">
            <mxPoint x="6758.99" y="2868" as="sourcePoint" />
            <mxPoint x="6758.99" y="2817" as="targetPoint" />
          </mxGeometry>
        </mxCell>
        <mxCell id="5uYzXn4WJ4j_uTU6qq_i-197" value="" style="endArrow=none;html=1;rounded=0;entryX=0.5;entryY=1;entryDx=0;entryDy=0;exitX=0.5;exitY=0;exitDx=0;exitDy=0;strokeWidth=4;fontFamily=icocpeur;fontSize=68;" parent="5uYzXn4WJ4j_uTU6qq_i-211" edge="1">
          <mxGeometry width="50" height="50" relative="1" as="geometry">
            <mxPoint x="6759.16" y="3215.5299999999997" as="sourcePoint" />
            <mxPoint x="6759.16" y="3164.5299999999997" as="targetPoint" />
          </mxGeometry>
        </mxCell>
        <mxCell id="5uYzXn4WJ4j_uTU6qq_i-201" value="" style="endArrow=none;html=1;rounded=0;strokeWidth=4;fontFamily=icocpeur;fontSize=68;" parent="5uYzXn4WJ4j_uTU6qq_i-211" edge="1">
          <mxGeometry width="50" height="50" relative="1" as="geometry">
            <mxPoint x="7346" y="3801" as="sourcePoint" />
            <mxPoint x="7346" y="3921" as="targetPoint" />
            <Array as="points" />
          </mxGeometry>
        </mxCell>
        <mxCell id="5uYzXn4WJ4j_uTU6qq_i-202" value="" style="endArrow=none;html=1;rounded=0;entryX=0.5;entryY=1;entryDx=0;entryDy=0;strokeWidth=4;fontFamily=icocpeur;fontSize=68;" parent="5uYzXn4WJ4j_uTU6qq_i-211" target="zg1p9sOW_J3XvHUaNTcT-8" edge="1">
          <mxGeometry width="50" height="50" relative="1" as="geometry">
            <mxPoint x="6760" y="4343" as="sourcePoint" />
            <mxPoint x="6669" y="4293" as="targetPoint" />
            <Array as="points">
              <mxPoint x="6760" y="4343" />
              <mxPoint x="6171" y="4343" />
            </Array>
          </mxGeometry>
        </mxCell>
        <mxCell id="5uYzXn4WJ4j_uTU6qq_i-206" value="Поздравляю!" style="rounded=0;whiteSpace=wrap;html=1;shadow=1;container=0;fontSize=68;align=center;strokeWidth=4;fontFamily=icocpeur;" parent="5uYzXn4WJ4j_uTU6qq_i-211" vertex="1">
          <mxGeometry x="7043.996363636365" y="4742.999016393443" width="603.6363636363636" height="298.5245901639344" as="geometry" />
        </mxCell>
        <mxCell id="xP8ow22Th84q_exFiTR_-4" value="" style="endArrow=none;html=1;rounded=0;strokeWidth=4;fontFamily=icocpeur;fontSize=68;" parent="5uYzXn4WJ4j_uTU6qq_i-211" edge="1">
          <mxGeometry width="50" height="50" relative="1" as="geometry">
            <mxPoint x="7603" y="2103" as="sourcePoint" />
            <mxPoint x="8443" y="2168" as="targetPoint" />
            <Array as="points">
              <mxPoint x="7603" y="2102.999999999998" />
              <mxPoint x="8443" y="2103" />
            </Array>
          </mxGeometry>
        </mxCell>
        <mxCell id="x-hWQsG4ySw8Oo5mr3VZ-16" value="Справка" style="shape=display;whiteSpace=wrap;html=1;shadow=1;container=0;fontSize=68;align=center;strokeWidth=4;fontFamily=icocpeur;" parent="5uYzXn4WJ4j_uTU6qq_i-211" vertex="1">
          <mxGeometry x="459" y="1713.7752459016388" width="603.6363636363636" height="298.5245901639344" as="geometry" />
        </mxCell>
        <mxCell id="x-hWQsG4ySw8Oo5mr3VZ-17" value="Меню" style="shape=display;whiteSpace=wrap;html=1;shadow=1;container=0;fontSize=68;align=center;strokeWidth=4;fontFamily=icocpeur;" parent="5uYzXn4WJ4j_uTU6qq_i-211" vertex="1">
          <mxGeometry x="1515.363636363636" y="1713.7752459016388" width="603.6363636363636" height="298.5245901639344" as="geometry" />
        </mxCell>
        <mxCell id="x-hWQsG4ySw8Oo5mr3VZ-18" value="Мелодия" style="shape=display;whiteSpace=wrap;html=1;shadow=1;container=0;fontSize=68;align=center;strokeWidth=4;fontFamily=icocpeur;" parent="5uYzXn4WJ4j_uTU6qq_i-211" vertex="1">
          <mxGeometry x="3020.6818181818185" y="1713.7752459016388" width="603.6363636363636" height="298.5245901639344" as="geometry" />
        </mxCell>
        <mxCell id="x-hWQsG4ySw8Oo5mr3VZ-22" value="" style="endArrow=none;html=1;rounded=0;entryX=0;entryY=0;entryDx=85;entryDy=60;entryPerimeter=0;shadow=1;fontSize=68;align=center;strokeWidth=4;fontFamily=icocpeur;" parent="5uYzXn4WJ4j_uTU6qq_i-211" edge="1">
          <mxGeometry width="50" height="50" relative="1" as="geometry">
            <mxPoint x="2200" y="1254" as="sourcePoint" />
            <mxPoint x="2199.7740909090912" y="1174.004754098361" as="targetPoint" />
            <Array as="points" />
          </mxGeometry>
        </mxCell>
        <mxCell id="x-hWQsG4ySw8Oo5mr3VZ-27" value="" style="endArrow=none;html=1;rounded=0;shadow=1;fontSize=68;align=center;strokeWidth=4;entryX=0;entryY=0;entryDx=302.64157973174366;entryDy=0;entryPerimeter=0;fontFamily=icocpeur;" parent="5uYzXn4WJ4j_uTU6qq_i-211" target="x-hWQsG4ySw8Oo5mr3VZ-17" edge="1">
          <mxGeometry width="50" height="50" relative="1" as="geometry">
            <mxPoint x="1818" y="1674" as="sourcePoint" />
            <mxPoint x="1817.1818181818185" y="1713.7752459016388" as="targetPoint" />
          </mxGeometry>
        </mxCell>
        <mxCell id="x-hWQsG4ySw8Oo5mr3VZ-28" value="" style="endArrow=none;html=1;rounded=0;shadow=1;fontSize=68;align=center;strokeWidth=4;exitX=0.493;exitY=0.001;exitDx=0;exitDy=0;exitPerimeter=0;fontFamily=icocpeur;" parent="5uYzXn4WJ4j_uTU6qq_i-211" source="x-hWQsG4ySw8Oo5mr3VZ-18" edge="1">
          <mxGeometry width="50" height="50" relative="1" as="geometry">
            <mxPoint x="3317" y="1711" as="sourcePoint" />
            <mxPoint x="3318" y="1674" as="targetPoint" />
          </mxGeometry>
        </mxCell>
        <mxCell id="x-hWQsG4ySw8Oo5mr3VZ-32" value="" style="endArrow=none;html=1;rounded=0;entryX=0.5;entryY=1;entryDx=0;entryDy=0;entryPerimeter=0;shadow=1;fontSize=68;align=center;strokeWidth=4;fontFamily=icocpeur;" parent="5uYzXn4WJ4j_uTU6qq_i-211" target="x-hWQsG4ySw8Oo5mr3VZ-17" edge="1">
          <mxGeometry width="50" height="50" relative="1" as="geometry">
            <mxPoint x="1817.1818181818185" y="2261.070327868853" as="sourcePoint" />
            <mxPoint x="2571.7272727272734" y="2410.3326229508198" as="targetPoint" />
          </mxGeometry>
        </mxCell>
        <mxCell id="x-hWQsG4ySw8Oo5mr3VZ-35" value="" style="endArrow=none;html=1;rounded=0;entryX=0;entryY=0;entryDx=85;entryDy=60;entryPerimeter=0;shadow=1;fontSize=68;align=center;strokeWidth=4;fontFamily=icocpeur;" parent="5uYzXn4WJ4j_uTU6qq_i-211" edge="1">
          <mxGeometry width="50" height="50" relative="1" as="geometry">
            <mxPoint x="760.8181818181813" y="2111.808032786885" as="sourcePoint" />
            <mxPoint x="760.8181818181813" y="2012.2998360655733" as="targetPoint" />
          </mxGeometry>
        </mxCell>
        <mxCell id="x-hWQsG4ySw8Oo5mr3VZ-38" value="&amp;nbsp; &amp;nbsp; &amp;nbsp;spravka.chm" style="strokeWidth=4;html=1;shape=mxgraph.flowchart.direct_data;whiteSpace=wrap;shadow=1;container=0;fontSize=68;align=left;fontFamily=icocpeur;" parent="5uYzXn4WJ4j_uTU6qq_i-211" vertex="1">
          <mxGeometry x="459" y="2111.808032786885" width="603.6363636363636" height="298.5245901639344" as="geometry" />
        </mxCell>
        <mxCell id="x-hWQsG4ySw8Oo5mr3VZ-41" value="Об авторе" style="shape=display;whiteSpace=wrap;html=1;shadow=1;container=0;fontSize=68;align=center;strokeWidth=4;fontFamily=icocpeur;" parent="5uYzXn4WJ4j_uTU6qq_i-211" vertex="1">
          <mxGeometry x="1175.818181818181" y="2659.1031147540984" width="603.6363636363636" height="298.5245901639344" as="geometry" />
        </mxCell>
        <mxCell id="x-hWQsG4ySw8Oo5mr3VZ-42" value="Правило игры&amp;nbsp;" style="shape=display;whiteSpace=wrap;html=1;shadow=1;container=0;fontSize=68;align=center;strokeWidth=4;fontFamily=icocpeur;" parent="5uYzXn4WJ4j_uTU6qq_i-211" vertex="1">
          <mxGeometry x="1854.9090909090905" y="2659.1031147540984" width="603.6363636363636" height="298.5245901639344" as="geometry" />
        </mxCell>
        <mxCell id="x-hWQsG4ySw8Oo5mr3VZ-43" value="" style="endArrow=none;html=1;rounded=0;shadow=1;fontSize=68;align=center;strokeWidth=4;fontFamily=icocpeur;startArrow=open;startFill=0;" parent="5uYzXn4WJ4j_uTU6qq_i-211" edge="1">
          <mxGeometry width="50" height="50" relative="1" as="geometry">
            <mxPoint x="1477.636363636364" y="2266.045737704918" as="sourcePoint" />
            <mxPoint x="2156.7272727272734" y="2266.045737704918" as="targetPoint" />
          </mxGeometry>
        </mxCell>
        <mxCell id="x-hWQsG4ySw8Oo5mr3VZ-44" value="" style="endArrow=none;html=1;rounded=0;shadow=1;fontSize=68;align=center;strokeWidth=4;fontFamily=icocpeur;" parent="5uYzXn4WJ4j_uTU6qq_i-211" edge="1">
          <mxGeometry width="50" height="50" relative="1" as="geometry">
            <mxPoint x="1477.636363636364" y="2659.1031147540984" as="sourcePoint" />
            <mxPoint x="1477.636363636364" y="2266.045737704918" as="targetPoint" />
          </mxGeometry>
        </mxCell>
        <mxCell id="x-hWQsG4ySw8Oo5mr3VZ-45" value="" style="endArrow=none;html=1;rounded=0;shadow=1;fontSize=68;align=center;strokeWidth=4;fontFamily=icocpeur;" parent="5uYzXn4WJ4j_uTU6qq_i-211" edge="1">
          <mxGeometry width="50" height="50" relative="1" as="geometry">
            <mxPoint x="2156.7272727272734" y="2659.1031147540984" as="sourcePoint" />
            <mxPoint x="2156.7272727272734" y="2266.045737704918" as="targetPoint" />
          </mxGeometry>
        </mxCell>
        <mxCell id="x-hWQsG4ySw8Oo5mr3VZ-46" value="Включить" style="shape=display;whiteSpace=wrap;html=1;shadow=1;container=0;fontSize=68;align=center;strokeWidth=4;fontFamily=icocpeur;" parent="5uYzXn4WJ4j_uTU6qq_i-211" vertex="1">
          <mxGeometry x="2681.136363636364" y="2211.316229508196" width="603.6363636363636" height="298.5245901639344" as="geometry" />
        </mxCell>
        <mxCell id="x-hWQsG4ySw8Oo5mr3VZ-47" value="Выключить" style="shape=display;whiteSpace=wrap;html=1;shadow=1;container=0;fontSize=68;align=center;strokeWidth=4;fontFamily=icocpeur;" parent="5uYzXn4WJ4j_uTU6qq_i-211" vertex="1">
          <mxGeometry x="3360.227272727272" y="2211.316229508196" width="603.6363636363636" height="298.5245901639344" as="geometry" />
        </mxCell>
        <mxCell id="x-hWQsG4ySw8Oo5mr3VZ-48" value="" style="endArrow=none;html=1;rounded=0;shadow=1;fontSize=68;align=center;strokeWidth=4;fontFamily=icocpeur;startArrow=open;startFill=0;" parent="5uYzXn4WJ4j_uTU6qq_i-211" edge="1">
          <mxGeometry width="50" height="50" relative="1" as="geometry">
            <mxPoint x="2982.954545454546" y="2111.808032786885" as="sourcePoint" />
            <mxPoint x="3662.045454545456" y="2111.808032786885" as="targetPoint" />
          </mxGeometry>
        </mxCell>
        <mxCell id="x-hWQsG4ySw8Oo5mr3VZ-49" value="" style="endArrow=none;html=1;rounded=0;shadow=1;fontSize=68;align=center;strokeWidth=4;fontFamily=icocpeur;" parent="5uYzXn4WJ4j_uTU6qq_i-211" edge="1">
          <mxGeometry width="50" height="50" relative="1" as="geometry">
            <mxPoint x="2982.954545454546" y="2211.316229508196" as="sourcePoint" />
            <mxPoint x="2982.954545454546" y="2111.808032786885" as="targetPoint" />
          </mxGeometry>
        </mxCell>
        <mxCell id="x-hWQsG4ySw8Oo5mr3VZ-50" value="" style="endArrow=none;html=1;rounded=0;shadow=1;fontSize=68;align=center;strokeWidth=4;fontFamily=icocpeur;" parent="5uYzXn4WJ4j_uTU6qq_i-211" edge="1">
          <mxGeometry width="50" height="50" relative="1" as="geometry">
            <mxPoint x="3662.045454545456" y="2211.316229508196" as="sourcePoint" />
            <mxPoint x="3662.045454545456" y="2111.808032786885" as="targetPoint" />
          </mxGeometry>
        </mxCell>
        <mxCell id="x-hWQsG4ySw8Oo5mr3VZ-51" value="" style="endArrow=none;html=1;rounded=0;shadow=1;fontSize=68;align=center;strokeWidth=4;fontFamily=icocpeur;" parent="5uYzXn4WJ4j_uTU6qq_i-211" edge="1">
          <mxGeometry width="50" height="50" relative="1" as="geometry">
            <mxPoint x="3320.9909090909077" y="2111.808032786885" as="sourcePoint" />
            <mxPoint x="3320.9909090909077" y="2012.2998360655733" as="targetPoint" />
          </mxGeometry>
        </mxCell>
        <mxCell id="x-hWQsG4ySw8Oo5mr3VZ-52" value="" style="endArrow=none;html=1;rounded=0;entryX=0.5;entryY=1;entryDx=0;entryDy=0;entryPerimeter=0;shadow=1;fontSize=68;align=center;strokeWidth=4;fontFamily=icocpeur;" parent="5uYzXn4WJ4j_uTU6qq_i-211" target="x-hWQsG4ySw8Oo5mr3VZ-103" edge="1">
          <mxGeometry width="50" height="50" relative="1" as="geometry">
            <mxPoint x="3326.272727272728" y="3405.4145901639336" as="sourcePoint" />
            <mxPoint x="2978.729090909091" y="3349.2919672131143" as="targetPoint" />
            <Array as="points">
              <mxPoint x="2982.954545454546" y="3405.4145901639336" />
            </Array>
          </mxGeometry>
        </mxCell>
        <mxCell id="x-hWQsG4ySw8Oo5mr3VZ-53" value="" style="endArrow=none;html=1;rounded=0;shadow=1;fontSize=68;align=center;strokeWidth=4;fontFamily=icocpeur;startArrow=open;startFill=0;" parent="5uYzXn4WJ4j_uTU6qq_i-211" edge="1">
          <mxGeometry width="50" height="50" relative="1" as="geometry">
            <mxPoint x="3322.5" y="3405.4145901639336" as="sourcePoint" />
            <mxPoint x="3662.045454545456" y="2907.873606557377" as="targetPoint" />
            <Array as="points">
              <mxPoint x="3662.045454545456" y="3405.4145901639336" />
            </Array>
          </mxGeometry>
        </mxCell>
        <mxCell id="x-hWQsG4ySw8Oo5mr3VZ-54" value="" style="endArrow=none;html=1;rounded=0;shadow=1;fontSize=68;align=center;strokeWidth=4;fontFamily=icocpeur;" parent="5uYzXn4WJ4j_uTU6qq_i-211" edge="1">
          <mxGeometry width="50" height="50" relative="1" as="geometry">
            <mxPoint x="3323" y="5134" as="sourcePoint" />
            <mxPoint x="3322.5" y="3405.4145901639336" as="targetPoint" />
            <Array as="points">
              <mxPoint x="3322.5" y="5097.05393442623" />
              <mxPoint x="3326.272727272728" y="4450.250655737706" />
              <mxPoint x="3322.5" y="3504.9227868852454" />
            </Array>
          </mxGeometry>
        </mxCell>
        <mxCell id="x-hWQsG4ySw8Oo5mr3VZ-55" value="" style="endArrow=none;html=1;rounded=0;entryX=0.493;entryY=1.062;entryDx=0;entryDy=0;entryPerimeter=0;shadow=1;fontSize=68;align=center;strokeWidth=4;fontFamily=icocpeur;" parent="5uYzXn4WJ4j_uTU6qq_i-211" edge="1">
          <mxGeometry width="50" height="50" relative="1" as="geometry">
            <mxPoint x="1819.2945454545447" y="4810.900655737707" as="sourcePoint" />
            <mxPoint x="1475.5236363636368" y="4709.999344262295" as="targetPoint" />
            <Array as="points">
              <mxPoint x="1475.9763636363627" y="4810.900655737707" />
            </Array>
          </mxGeometry>
        </mxCell>
        <mxCell id="x-hWQsG4ySw8Oo5mr3VZ-56" value="" style="endArrow=none;html=1;rounded=0;shadow=1;fontSize=68;align=center;strokeWidth=4;fontFamily=icocpeur;startArrow=open;startFill=0;" parent="5uYzXn4WJ4j_uTU6qq_i-211" edge="1">
          <mxGeometry width="50" height="50" relative="1" as="geometry">
            <mxPoint x="1819.2945454545447" y="4811.040655737706" as="sourcePoint" />
            <mxPoint x="2158.8399999999997" y="4711.532459016393" as="targetPoint" />
            <Array as="points">
              <mxPoint x="2158.8399999999997" y="4811.040655737706" />
            </Array>
          </mxGeometry>
        </mxCell>
        <mxCell id="x-hWQsG4ySw8Oo5mr3VZ-58" value="" style="endArrow=none;html=1;rounded=0;shadow=1;fontSize=68;align=center;strokeWidth=4;fontFamily=icocpeur;" parent="5uYzXn4WJ4j_uTU6qq_i-211" edge="1">
          <mxGeometry width="50" height="50" relative="1" as="geometry">
            <mxPoint x="1818" y="4914" as="sourcePoint" />
            <mxPoint x="1818" y="4810" as="targetPoint" />
          </mxGeometry>
        </mxCell>
        <mxCell id="x-hWQsG4ySw8Oo5mr3VZ-81" value="avtor" style="shape=display;whiteSpace=wrap;html=1;shadow=1;container=0;fontSize=68;align=center;strokeWidth=4;fontFamily=icocpeur;" parent="5uYzXn4WJ4j_uTU6qq_i-211" vertex="1">
          <mxGeometry x="1175.818181818181" y="3057.135901639345" width="603.6363636363636" height="298.5245901639344" as="geometry" />
        </mxCell>
        <mxCell id="x-hWQsG4ySw8Oo5mr3VZ-82" value="pravila" style="shape=display;whiteSpace=wrap;html=1;shadow=1;container=0;fontSize=68;align=center;strokeWidth=4;fontFamily=icocpeur;" parent="5uYzXn4WJ4j_uTU6qq_i-211" vertex="1">
          <mxGeometry x="1854.9090909090905" y="3057.135901639345" width="603.6363636363636" height="298.5245901639344" as="geometry" />
        </mxCell>
        <mxCell id="x-hWQsG4ySw8Oo5mr3VZ-83" value="" style="endArrow=none;html=1;rounded=0;entryX=0.5;entryY=0.999;entryDx=0;entryDy=0;entryPerimeter=0;exitX=0.5;exitY=-0.004;exitDx=0;exitDy=0;exitPerimeter=0;shadow=1;fontSize=68;align=center;strokeWidth=4;fontFamily=icocpeur;" parent="5uYzXn4WJ4j_uTU6qq_i-211" source="x-hWQsG4ySw8Oo5mr3VZ-81" target="x-hWQsG4ySw8Oo5mr3VZ-41" edge="1">
          <mxGeometry width="50" height="50" relative="1" as="geometry">
            <mxPoint x="1477.636363636364" y="3052.1604918032785" as="sourcePoint" />
            <mxPoint x="1817.1818181818185" y="3106.890000000001" as="targetPoint" />
          </mxGeometry>
        </mxCell>
        <mxCell id="x-hWQsG4ySw8Oo5mr3VZ-84" value="" style="endArrow=none;html=1;rounded=0;entryX=0.5;entryY=0.999;entryDx=0;entryDy=0;entryPerimeter=0;exitX=0.5;exitY=-0.004;exitDx=0;exitDy=0;exitPerimeter=0;shadow=1;fontSize=68;align=center;strokeWidth=4;fontFamily=icocpeur;" parent="5uYzXn4WJ4j_uTU6qq_i-211" edge="1">
          <mxGeometry width="50" height="50" relative="1" as="geometry">
            <mxPoint x="2155.8595454545457" y="3057.135901639345" as="sourcePoint" />
            <mxPoint x="2155.8595454545457" y="2957.627704918032" as="targetPoint" />
          </mxGeometry>
        </mxCell>
        <mxCell id="x-hWQsG4ySw8Oo5mr3VZ-85" value="" style="endArrow=none;html=1;rounded=0;entryX=0.506;entryY=1;entryDx=0;entryDy=0;entryPerimeter=0;shadow=1;fontSize=68;align=center;strokeWidth=4;fontFamily=icocpeur;" parent="5uYzXn4WJ4j_uTU6qq_i-211" target="x-hWQsG4ySw8Oo5mr3VZ-81" edge="1">
          <mxGeometry width="50" height="50" relative="1" as="geometry">
            <mxPoint x="1481.409090909091" y="4500.004754098361" as="sourcePoint" />
            <mxPoint x="1628.545454545455" y="3156.644098360656" as="targetPoint" />
            <Array as="points">
              <mxPoint x="1477.636363636364" y="4500.004754098361" />
            </Array>
          </mxGeometry>
        </mxCell>
        <mxCell id="x-hWQsG4ySw8Oo5mr3VZ-86" value="Вывод информации&amp;nbsp;&lt;div style=&quot;font-size: 68px;&quot;&gt;об авторе&lt;/div&gt;" style="rounded=0;whiteSpace=wrap;html=1;shadow=1;container=0;fontSize=68;align=center;strokeWidth=4;fontFamily=icocpeur;" parent="5uYzXn4WJ4j_uTU6qq_i-211" vertex="1">
          <mxGeometry x="572.1818181818185" y="3703.939180327869" width="603.6363636363636" height="298.5245901639344" as="geometry" />
        </mxCell>
        <mxCell id="x-hWQsG4ySw8Oo5mr3VZ-87" value="" style="endArrow=none;html=1;rounded=0;entryX=0.5;entryY=1;entryDx=0;entryDy=0;shadow=1;fontSize=68;align=center;strokeWidth=4;fontFamily=icocpeur;" parent="5uYzXn4WJ4j_uTU6qq_i-211" target="x-hWQsG4ySw8Oo5mr3VZ-86" edge="1">
          <mxGeometry width="50" height="50" relative="1" as="geometry">
            <mxPoint x="874" y="4101.971967213115" as="sourcePoint" />
            <mxPoint x="1439.90909090909" y="3455.1686885245904" as="targetPoint" />
          </mxGeometry>
        </mxCell>
        <mxCell id="x-hWQsG4ySw8Oo5mr3VZ-88" value="Яяя.htm" style="strokeWidth=4;html=1;shape=mxgraph.flowchart.direct_data;whiteSpace=wrap;spacing=2;shadow=1;container=0;fontSize=68;align=center;fontFamily=icocpeur;" parent="5uYzXn4WJ4j_uTU6qq_i-211" vertex="1">
          <mxGeometry x="572.1818181818185" y="4101.971967213115" width="603.6363636363636" height="298.5245901639344" as="geometry" />
        </mxCell>
        <mxCell id="x-hWQsG4ySw8Oo5mr3VZ-89" value="" style="endArrow=open;html=1;rounded=0;shadow=1;fontSize=68;align=center;strokeWidth=4;fontFamily=icocpeur;startArrow=none;startFill=0;endFill=0;" parent="5uYzXn4WJ4j_uTU6qq_i-211" edge="1">
          <mxGeometry width="50" height="50" relative="1" as="geometry">
            <mxPoint x="1477.636363636364" y="3455.1686885245904" as="sourcePoint" />
            <mxPoint x="880" y="3455" as="targetPoint" />
            <Array as="points" />
          </mxGeometry>
        </mxCell>
        <mxCell id="x-hWQsG4ySw8Oo5mr3VZ-90" value="Закрыть" style="shape=display;whiteSpace=wrap;html=1;shadow=1;container=0;fontSize=68;align=center;strokeWidth=4;fontFamily=icocpeur;" parent="5uYzXn4WJ4j_uTU6qq_i-211" vertex="1">
          <mxGeometry x="1175.818181818181" y="4413.004754098361" width="603.6363636363636" height="298.5245901639344" as="geometry" />
        </mxCell>
        <mxCell id="x-hWQsG4ySw8Oo5mr3VZ-91" value="" style="endArrow=none;html=1;rounded=0;entryX=0.506;entryY=1;entryDx=0;entryDy=0;entryPerimeter=0;shadow=1;fontSize=68;align=center;strokeWidth=4;fontFamily=icocpeur;" parent="5uYzXn4WJ4j_uTU6qq_i-211" edge="1">
          <mxGeometry width="50" height="50" relative="1" as="geometry">
            <mxPoint x="2156.7272727272734" y="4500.004754098361" as="sourcePoint" />
            <mxPoint x="2156.7272727272734" y="3355.6604918032785" as="targetPoint" />
            <Array as="points">
              <mxPoint x="2152.954545454546" y="4500.004754098361" />
            </Array>
          </mxGeometry>
        </mxCell>
        <mxCell id="x-hWQsG4ySw8Oo5mr3VZ-92" value="Вывод информации&amp;nbsp;&lt;div style=&quot;font-size: 68px;&quot;&gt;о правилах к игре&lt;/div&gt;" style="rounded=0;whiteSpace=wrap;html=1;flipH=0;shadow=1;container=0;fontSize=68;align=center;strokeWidth=4;fontFamily=icocpeur;" parent="5uYzXn4WJ4j_uTU6qq_i-211" vertex="1">
          <mxGeometry x="2458.5454545454545" y="3703.939180327869" width="603.6363636363636" height="298.5245901639344" as="geometry" />
        </mxCell>
        <mxCell id="x-hWQsG4ySw8Oo5mr3VZ-93" value="" style="endArrow=none;html=1;rounded=0;entryX=0.5;entryY=1;entryDx=0;entryDy=0;shadow=1;fontSize=68;align=center;strokeWidth=4;fontFamily=icocpeur;" parent="5uYzXn4WJ4j_uTU6qq_i-211" target="x-hWQsG4ySw8Oo5mr3VZ-92" edge="1">
          <mxGeometry width="50" height="50" relative="1" as="geometry">
            <mxPoint x="2760.363636363637" y="4101.971967213115" as="sourcePoint" />
            <mxPoint x="3326.272727272728" y="3455.1686885245904" as="targetPoint" />
          </mxGeometry>
        </mxCell>
        <mxCell id="x-hWQsG4ySw8Oo5mr3VZ-94" value="&amp;nbsp; &amp;nbsp;Правило.htm" style="strokeWidth=4;html=1;shape=mxgraph.flowchart.direct_data;whiteSpace=wrap;spacing=2;flipH=0;shadow=1;container=0;fontSize=68;align=left;fontFamily=icocpeur;" parent="5uYzXn4WJ4j_uTU6qq_i-211" vertex="1">
          <mxGeometry x="2458.5454545454545" y="4101.971967213115" width="603.6363636363636" height="298.5245901639344" as="geometry" />
        </mxCell>
        <mxCell id="x-hWQsG4ySw8Oo5mr3VZ-95" value="" style="endArrow=none;html=1;rounded=0;shadow=1;fontSize=68;align=center;strokeWidth=4;fontFamily=icocpeur;" parent="5uYzXn4WJ4j_uTU6qq_i-211" edge="1">
          <mxGeometry width="50" height="50" relative="1" as="geometry">
            <mxPoint x="2156.7272727272702" y="3455.1686885245904" as="sourcePoint" />
            <mxPoint x="2760.363636363634" y="3703.939180327869" as="targetPoint" />
            <Array as="points">
              <mxPoint x="2760.363636363634" y="3455.1686885245904" />
            </Array>
          </mxGeometry>
        </mxCell>
        <mxCell id="x-hWQsG4ySw8Oo5mr3VZ-96" value="Закрыть" style="shape=display;whiteSpace=wrap;html=1;flipH=0;shadow=1;container=0;fontSize=68;align=center;strokeWidth=4;fontFamily=icocpeur;" parent="5uYzXn4WJ4j_uTU6qq_i-211" vertex="1">
          <mxGeometry x="1851.1363636363635" y="4414.004754098361" width="603.6363636363636" height="298.5245901639344" as="geometry" />
        </mxCell>
        <mxCell id="x-hWQsG4ySw8Oo5mr3VZ-97" value="" style="endArrow=none;html=1;rounded=0;shadow=1;fontSize=68;align=center;strokeWidth=4;fontFamily=icocpeur;" parent="5uYzXn4WJ4j_uTU6qq_i-211" edge="1">
          <mxGeometry width="50" height="50" relative="1" as="geometry">
            <mxPoint x="1820" y="4914" as="sourcePoint" />
            <mxPoint x="874" y="4400.49655737705" as="targetPoint" />
            <Array as="points">
              <mxPoint x="874" y="4904" />
            </Array>
          </mxGeometry>
        </mxCell>
        <mxCell id="x-hWQsG4ySw8Oo5mr3VZ-99" value="" style="endArrow=none;html=1;rounded=0;shadow=1;fontSize=68;align=center;strokeWidth=4;fontFamily=icocpeur;" parent="5uYzXn4WJ4j_uTU6qq_i-211" edge="1">
          <mxGeometry width="50" height="50" relative="1" as="geometry">
            <mxPoint x="1818" y="5132" as="sourcePoint" />
            <mxPoint x="1818" y="4912" as="targetPoint" />
          </mxGeometry>
        </mxCell>
        <mxCell id="x-hWQsG4ySw8Oo5mr3VZ-100" value="" style="endArrow=none;html=1;rounded=0;entryX=0;entryY=0;entryDx=302.64157973174366;entryDy=298.5245901639344;entryPerimeter=0;shadow=1;fontSize=68;exitX=0.5;exitY=0;exitDx=0;exitDy=0;align=center;strokeWidth=4;fontFamily=icocpeur;" parent="5uYzXn4WJ4j_uTU6qq_i-211" source="x-hWQsG4ySw8Oo5mr3VZ-101" target="x-hWQsG4ySw8Oo5mr3VZ-46" edge="1">
          <mxGeometry width="50" height="50" relative="1" as="geometry">
            <mxPoint x="2996.259786476868" y="2592.182397660819" as="sourcePoint" />
            <mxPoint x="3439.454545454545" y="2559.5949180327866" as="targetPoint" />
          </mxGeometry>
        </mxCell>
        <mxCell id="x-hWQsG4ySw8Oo5mr3VZ-101" value="Вывод мелодии" style="rounded=0;whiteSpace=wrap;html=1;shadow=1;container=0;fontSize=68;align=center;strokeWidth=4;fontFamily=icocpeur;" parent="5uYzXn4WJ4j_uTU6qq_i-211" vertex="1">
          <mxGeometry x="2681.136363636364" y="2609.3490163934434" width="603.6363636363636" height="298.5245901639344" as="geometry" />
        </mxCell>
        <mxCell id="x-hWQsG4ySw8Oo5mr3VZ-102" value="" style="endArrow=none;html=1;rounded=0;entryX=0.5;entryY=1;entryDx=0;entryDy=0;shadow=1;fontSize=68;align=center;strokeWidth=4;fontFamily=icocpeur;" parent="5uYzXn4WJ4j_uTU6qq_i-211" target="x-hWQsG4ySw8Oo5mr3VZ-101" edge="1">
          <mxGeometry width="50" height="50" relative="1" as="geometry">
            <mxPoint x="2982.954545454546" y="3007.381803278689" as="sourcePoint" />
            <mxPoint x="3548.863636363637" y="2360.5785245901634" as="targetPoint" />
          </mxGeometry>
        </mxCell>
        <mxCell id="x-hWQsG4ySw8Oo5mr3VZ-103" value="песня.mp3" style="strokeWidth=4;html=1;shape=mxgraph.flowchart.direct_data;whiteSpace=wrap;spacing=2;shadow=1;container=0;fontSize=68;align=center;fontFamily=icocpeur;" parent="5uYzXn4WJ4j_uTU6qq_i-211" vertex="1">
          <mxGeometry x="2681.136363636364" y="3007.381803278689" width="603.6363636363636" height="298.5245901639344" as="geometry" />
        </mxCell>
        <mxCell id="x-hWQsG4ySw8Oo5mr3VZ-105" value="Завершение мелодии" style="rounded=0;whiteSpace=wrap;html=1;shadow=1;container=0;fontSize=68;align=center;strokeWidth=4;fontFamily=icocpeur;" parent="5uYzXn4WJ4j_uTU6qq_i-211" vertex="1">
          <mxGeometry x="3360.227272727272" y="2609.3490163934434" width="603.6363636363636" height="298.5245901639344" as="geometry" />
        </mxCell>
        <mxCell id="x-hWQsG4ySw8Oo5mr3VZ-106" value="" style="endArrow=none;html=1;rounded=0;entryX=0;entryY=0;entryDx=85;entryDy=60;entryPerimeter=0;shadow=1;fontSize=68;align=center;strokeWidth=4;fontFamily=icocpeur;" parent="5uYzXn4WJ4j_uTU6qq_i-211" edge="1">
          <mxGeometry width="50" height="50" relative="1" as="geometry">
            <mxPoint x="3662.045454545456" y="2609.3490163934434" as="sourcePoint" />
            <mxPoint x="3662.045454545456" y="2509.8408196721316" as="targetPoint" />
          </mxGeometry>
        </mxCell>
        <mxCell id="_wiQlaK4nrvpmJqKBJHH-1" value="Главное меню" style="shape=display;whiteSpace=wrap;html=1;shadow=1;container=0;fontSize=68;align=center;strokeWidth=4;fontFamily=icocpeur;" parent="5uYzXn4WJ4j_uTU6qq_i-211" vertex="1">
          <mxGeometry x="727.9963636363639" y="1334.0001639344266" width="603.6363636363636" height="298.5245901639344" as="geometry" />
        </mxCell>
        <mxCell id="_wiQlaK4nrvpmJqKBJHH-2" value="" style="endArrow=none;html=1;rounded=0;entryX=0.513;entryY=0.996;entryDx=0;entryDy=0;entryPerimeter=0;strokeWidth=4;fontFamily=icocpeur;fontSize=68;endFill=0;startArrow=open;startFill=0;" parent="5uYzXn4WJ4j_uTU6qq_i-211" target="_wiQlaK4nrvpmJqKBJHH-1" edge="1">
          <mxGeometry width="50" height="50" relative="1" as="geometry">
            <mxPoint x="758" y="1674" as="sourcePoint" />
            <mxPoint x="828" y="2364" as="targetPoint" />
            <Array as="points">
              <mxPoint x="758" y="1674" />
              <mxPoint x="1038" y="1674" />
            </Array>
          </mxGeometry>
        </mxCell>
        <mxCell id="5uYzXn4WJ4j_uTU6qq_i-208" value="" style="group;fontFamily=icocpeur;fontSize=68;" parent="5uYzXn4WJ4j_uTU6qq_i-210" vertex="1" connectable="0">
          <mxGeometry x="4746.454545454546" y="1879.4393442622948" width="2554.639999999999" height="2486.036065573771" as="geometry" />
        </mxCell>
        <mxCell id="5uYzXn4WJ4j_uTU6qq_i-198" value="" style="endArrow=none;html=1;rounded=0;entryX=0.5;entryY=1;entryDx=0;entryDy=0;exitX=0.5;exitY=0;exitDx=0;exitDy=0;strokeWidth=4;fontFamily=icocpeur;fontSize=68;" parent="5uYzXn4WJ4j_uTU6qq_i-208" edge="1">
          <mxGeometry width="50" height="50" relative="1" as="geometry">
            <mxPoint x="587" y="1317.0360655737709" as="sourcePoint" />
            <mxPoint x="587" y="1266.0360655737709" as="targetPoint" />
          </mxGeometry>
        </mxCell>
        <mxCell id="5uYzXn4WJ4j_uTU6qq_i-199" value="" style="endArrow=none;html=1;rounded=0;strokeWidth=4;entryX=0.493;entryY=0.003;entryDx=0;entryDy=0;entryPerimeter=0;fontFamily=icocpeur;fontSize=68;" parent="5uYzXn4WJ4j_uTU6qq_i-208" target="zg1p9sOW_J3XvHUaNTcT-8" edge="1">
          <mxGeometry width="50" height="50" relative="1" as="geometry">
            <mxPoint x="-4" y="1553.0360655737709" as="sourcePoint" />
            <mxPoint x="-4" y="1673.0360655737709" as="targetPoint" />
            <Array as="points" />
          </mxGeometry>
        </mxCell>
        <mxCell id="5uYzXn4WJ4j_uTU6qq_i-203" value="" style="endArrow=none;html=1;rounded=0;strokeWidth=4;fontFamily=icocpeur;fontSize=68;" parent="5uYzXn4WJ4j_uTU6qq_i-208" edge="1">
          <mxGeometry width="50" height="50" relative="1" as="geometry">
            <mxPoint x="586" y="2177.036065573771" as="sourcePoint" />
            <mxPoint x="586" y="2097.036065573771" as="targetPoint" />
          </mxGeometry>
        </mxCell>
        <mxCell id="5uYzXn4WJ4j_uTU6qq_i-204" value="" style="endArrow=none;html=1;rounded=0;strokeWidth=4;fontFamily=icocpeur;fontSize=68;" parent="5uYzXn4WJ4j_uTU6qq_i-208" edge="1">
          <mxGeometry width="50" height="50" relative="1" as="geometry">
            <mxPoint x="1175" y="2494.036065573771" as="sourcePoint" />
            <mxPoint x="1175" y="2411.036065573771" as="targetPoint" />
          </mxGeometry>
        </mxCell>
        <mxCell id="qz_dlfx-ycx6K2K1K7yL-4" value="Игра" style="shape=display;whiteSpace=wrap;html=1;container=0;fontSize=68;align=center;strokeWidth=4;fontFamily=icocpeur;" parent="5uYzXn4WJ4j_uTU6qq_i-208" vertex="1">
          <mxGeometry x="1972.0036363636357" y="-77.95999999999958" width="603.6363636363636" height="298.5245901639344" as="geometry" />
        </mxCell>
        <mxCell id="qz_dlfx-ycx6K2K1K7yL-98" value="Новая игра" style="shape=display;whiteSpace=wrap;html=1;container=0;fontSize=68;align=center;strokeWidth=4;fontFamily=icocpeur;" parent="5uYzXn4WJ4j_uTU6qq_i-208" vertex="1">
          <mxGeometry x="1062.0036363636355" y="286.03999999999996" width="603.6363636363636" height="298.5245901639344" as="geometry" />
        </mxCell>
        <mxCell id="qz_dlfx-ycx6K2K1K7yL-99" value="След.уровень&amp;nbsp;" style="shape=display;whiteSpace=wrap;html=1;container=0;fontSize=68;align=center;strokeWidth=4;fontFamily=icocpeur;" parent="5uYzXn4WJ4j_uTU6qq_i-208" vertex="1">
          <mxGeometry x="1725.0036363636355" y="285.0400000000002" width="603.6363636363636" height="298.5245901639344" as="geometry" />
        </mxCell>
        <mxCell id="qz_dlfx-ycx6K2K1K7yL-100" value="Главное меню" style="shape=display;whiteSpace=wrap;html=1;container=0;fontSize=68;align=center;strokeWidth=4;fontFamily=icocpeur;" parent="5uYzXn4WJ4j_uTU6qq_i-208" vertex="1">
          <mxGeometry x="2395.0036363636355" y="286.0400000000002" width="603.6363636363636" height="298.5245901639344" as="geometry" />
        </mxCell>
        <mxCell id="xP8ow22Th84q_exFiTR_-3" value="" style="endArrow=none;html=1;rounded=0;entryX=0.499;entryY=1;entryDx=0;entryDy=0;entryPerimeter=0;strokeWidth=4;fontFamily=icocpeur;fontSize=68;" parent="5uYzXn4WJ4j_uTU6qq_i-208" target="qz_dlfx-ycx6K2K1K7yL-4" edge="1">
          <mxGeometry width="50" height="50" relative="1" as="geometry">
            <mxPoint x="2688" y="286.0360655737709" as="sourcePoint" />
            <mxPoint x="2043" y="1156.0360655737709" as="targetPoint" />
            <Array as="points">
              <mxPoint x="2688" y="246.03606557377088" />
              <mxPoint x="2273" y="246.03606557377088" />
            </Array>
          </mxGeometry>
        </mxCell>
        <mxCell id="xP8ow22Th84q_exFiTR_-10" value="" style="endArrow=none;html=1;rounded=0;strokeWidth=4;fontFamily=icocpeur;fontSize=68;" parent="5uYzXn4WJ4j_uTU6qq_i-208" edge="1">
          <mxGeometry width="50" height="50" relative="1" as="geometry">
            <mxPoint x="1178" y="1553.0360655737709" as="sourcePoint" />
            <mxPoint x="890" y="1553.336065573771" as="targetPoint" />
          </mxGeometry>
        </mxCell>
        <mxCell id="xP8ow22Th84q_exFiTR_-11" value="" style="endArrow=none;html=1;rounded=0;strokeWidth=4;fontFamily=icocpeur;fontSize=68;" parent="5uYzXn4WJ4j_uTU6qq_i-208" edge="1">
          <mxGeometry width="50" height="50" relative="1" as="geometry">
            <mxPoint x="1177" y="2413.036065573771" as="sourcePoint" />
            <mxPoint x="889" y="2413.336065573771" as="targetPoint" />
          </mxGeometry>
        </mxCell>
        <mxCell id="xP8ow22Th84q_exFiTR_-6" value="" style="endArrow=none;html=1;rounded=0;strokeWidth=4;fontFamily=icocpeur;fontSize=68;startArrow=open;startFill=0;" parent="5uYzXn4WJ4j_uTU6qq_i-210" edge="1">
          <mxGeometry width="50" height="50" relative="1" as="geometry">
            <mxPoint x="6116.454545454546" y="2122.4754098360654" as="sourcePoint" />
            <mxPoint x="7017.454545454546" y="2125.4754098360654" as="targetPoint" />
            <Array as="points" />
          </mxGeometry>
        </mxCell>
        <mxCell id="xP8ow22Th84q_exFiTR_-7" value="" style="endArrow=none;html=1;rounded=0;exitX=0;exitY=0;exitDx=302.64157973174366;exitDy=0;exitPerimeter=0;strokeWidth=4;fontFamily=icocpeur;fontSize=68;" parent="5uYzXn4WJ4j_uTU6qq_i-210" source="qz_dlfx-ycx6K2K1K7yL-99" edge="1">
          <mxGeometry width="50" height="50" relative="1" as="geometry">
            <mxPoint x="6794.454545454546" y="2255.4754098360654" as="sourcePoint" />
            <mxPoint x="6774.454545454546" y="2125.4754098360654" as="targetPoint" />
          </mxGeometry>
        </mxCell>
        <mxCell id="xP8ow22Th84q_exFiTR_-8" value="" style="endArrow=none;html=1;rounded=0;entryX=0.506;entryY=1.001;entryDx=0;entryDy=0;entryPerimeter=0;strokeWidth=4;fontFamily=icocpeur;fontSize=68;" parent="5uYzXn4WJ4j_uTU6qq_i-210" edge="1">
          <mxGeometry width="50" height="50" relative="1" as="geometry">
            <mxPoint x="6446.454545454546" y="2504.4754098360654" as="sourcePoint" />
            <mxPoint x="6113.898181818182" y="2463.302459016393" as="targetPoint" />
            <Array as="points">
              <mxPoint x="6114.454545454546" y="2504.4754098360654" />
            </Array>
          </mxGeometry>
        </mxCell>
        <mxCell id="xP8ow22Th84q_exFiTR_-9" value="" style="endArrow=none;html=1;rounded=0;strokeWidth=4;fontFamily=icocpeur;fontSize=68;startArrow=open;startFill=0;" parent="5uYzXn4WJ4j_uTU6qq_i-210" edge="1">
          <mxGeometry width="50" height="50" relative="1" as="geometry">
            <mxPoint x="5736.454545454546" y="2541.4754098360654" as="sourcePoint" />
            <mxPoint x="6446.454545454546" y="2502.4754098360654" as="targetPoint" />
            <Array as="points">
              <mxPoint x="5736.454545454546" y="2541.4754098360654" />
              <mxPoint x="6446.454545454546" y="2538.4754098360654" />
            </Array>
          </mxGeometry>
        </mxCell>
        <mxCell id="xP8ow22Th84q_exFiTR_-12" value="" style="endArrow=none;html=1;rounded=0;strokeWidth=4;fontFamily=icocpeur;fontSize=68;" parent="5uYzXn4WJ4j_uTU6qq_i-210" edge="1">
          <mxGeometry width="50" height="50" relative="1" as="geometry">
            <mxPoint x="5924.454545454546" y="4675.475409836065" as="sourcePoint" />
            <mxPoint x="7434.454545454546" y="2465.4754098360654" as="targetPoint" />
            <Array as="points">
              <mxPoint x="5924.454545454546" y="4766.475409836065" />
              <mxPoint x="7434.454545454546" y="4765.475409836065" />
            </Array>
          </mxGeometry>
        </mxCell>
        <mxCell id="xP8ow22Th84q_exFiTR_-13" value="" style="endArrow=open;html=1;rounded=0;strokeWidth=4;fontFamily=icocpeur;fontSize=68;startArrow=none;startFill=0;endFill=0;" parent="5uYzXn4WJ4j_uTU6qq_i-210" edge="1">
          <mxGeometry width="50" height="50" relative="1" as="geometry">
            <mxPoint x="5926.454545454546" y="4766.475409836065" as="sourcePoint" />
            <mxPoint x="-1039.5454545454545" y="4762.475409836065" as="targetPoint" />
            <Array as="points">
              <mxPoint x="2398.4545454545455" y="4766.475409836065" />
              <mxPoint x="378.4545454545455" y="4762.475409836065" />
              <mxPoint x="-339.5454545454545" y="4762.475409836065" />
              <mxPoint x="-699.5454545454545" y="4762.475409836065" />
            </Array>
          </mxGeometry>
        </mxCell>
        <mxCell id="_wiQlaK4nrvpmJqKBJHH-3" value="" style="endArrow=none;html=1;rounded=0;strokeWidth=4;fontFamily=icocpeur;fontSize=68;strokeColor=default;endFill=0;" parent="5uYzXn4WJ4j_uTU6qq_i-210" edge="1">
          <mxGeometry width="50" height="50" relative="1" as="geometry">
            <mxPoint x="1894.4545454545455" y="1306.4754098360656" as="sourcePoint" />
            <mxPoint x="-385.5454545454545" y="1306.4754098360656" as="targetPoint" />
          </mxGeometry>
        </mxCell>
        <mxCell id="af4M1nc326QN9EUHBKpz-2" value="" style="endArrow=none;html=1;rounded=0;strokeWidth=4;fontFamily=icocpeur;exitX=0.504;exitY=-0.004;exitDx=0;exitDy=0;exitPerimeter=0;" parent="5uYzXn4WJ4j_uTU6qq_i-210" source="af4M1nc326QN9EUHBKpz-3" edge="1">
          <mxGeometry width="50" height="50" relative="1" as="geometry">
            <mxPoint x="7776.454545454546" y="963.4754098360656" as="sourcePoint" />
            <mxPoint x="6160.454545454546" y="887.4754098360656" as="targetPoint" />
            <Array as="points">
              <mxPoint x="7776.454545454546" y="883.4754098360656" />
            </Array>
          </mxGeometry>
        </mxCell>
        <mxCell id="af4M1nc326QN9EUHBKpz-4" value="" style="endArrow=none;html=1;rounded=0;entryX=0;entryY=0;entryDx=302.64157973174366;entryDy=298.5245901639344;entryPerimeter=0;strokeWidth=4;fontFamily=icocpeur;startArrow=open;startFill=0;" parent="5uYzXn4WJ4j_uTU6qq_i-210" target="af4M1nc326QN9EUHBKpz-3" edge="1">
          <mxGeometry width="50" height="50" relative="1" as="geometry">
            <mxPoint x="774.4545454545455" y="4966.475409836065" as="sourcePoint" />
            <mxPoint x="7434.454545454546" y="1506.4754098360656" as="targetPoint" />
            <Array as="points">
              <mxPoint x="7774.454545454546" y="4966.475409836065" />
              <mxPoint x="7774.454545454546" y="1406.4754098360656" />
            </Array>
          </mxGeometry>
        </mxCell>
        <mxCell id="af4M1nc326QN9EUHBKpz-5" value="" style="endArrow=none;html=1;rounded=0;strokeWidth=4;fontFamily=icocpeur;startArrow=open;startFill=0;" parent="5uYzXn4WJ4j_uTU6qq_i-210" edge="1">
          <mxGeometry width="50" height="50" relative="1" as="geometry">
            <mxPoint x="-385.5454545454545" y="886.4754098360656" as="sourcePoint" />
            <mxPoint x="774.4545454545455" y="886.4754098360656" as="targetPoint" />
            <Array as="points">
              <mxPoint x="-385.5454545454545" y="886.4754098360656" />
            </Array>
          </mxGeometry>
        </mxCell>
        <mxCell id="af4M1nc326QN9EUHBKpz-3" value="Выход" style="shape=display;whiteSpace=wrap;html=1;shadow=1;container=0;fontSize=68;align=center;strokeWidth=4;fontFamily=icocpeur;" parent="5uYzXn4WJ4j_uTU6qq_i-185" vertex="1">
          <mxGeometry x="8745.996363636365" y="1739.0026229508203" width="603.6363636363636" height="298.5245901639344" as="geometry" />
        </mxCell>
        <mxCell id="Ewvf6hZ-DNu61a4i_nWs-4" value="" style="endArrow=none;html=1;rounded=0;strokeWidth=4;exitX=0.499;exitY=0;exitDx=0;exitDy=0;exitPerimeter=0;" parent="1" source="x-hWQsG4ySw8Oo5mr3VZ-16" edge="1">
          <mxGeometry width="50" height="50" relative="1" as="geometry">
            <mxPoint x="799.6109090909091" y="2147.4767213114746" as="sourcePoint" />
            <mxPoint x="800" y="2114" as="targetPoint" />
          </mxGeometry>
        </mxCell>
        <mxCell id="Ewvf6hZ-DNu61a4i_nWs-5" value="" style="endArrow=none;html=1;rounded=0;strokeWidth=4;exitX=0.518;exitY=-0.002;exitDx=0;exitDy=0;exitPerimeter=0;" parent="1" source="_wiQlaK4nrvpmJqKBJHH-1" edge="1">
          <mxGeometry width="50" height="50" relative="1" as="geometry">
            <mxPoint x="1081" y="1770" as="sourcePoint" />
            <mxPoint x="1080" y="1694" as="targetPoint" />
          </mxGeometry>
        </mxCell>
        <mxCell id="Ewvf6hZ-DNu61a4i_nWs-6" value="" style="endArrow=none;html=1;rounded=0;entryX=0.5;entryY=1;entryDx=0;entryDy=0;entryPerimeter=0;strokeWidth=4;" parent="1" target="x-hWQsG4ySw8Oo5mr3VZ-38" edge="1">
          <mxGeometry width="50" height="50" relative="1" as="geometry">
            <mxPoint x="801" y="2930" as="sourcePoint" />
            <mxPoint x="930" y="2630" as="targetPoint" />
          </mxGeometry>
        </mxCell>
        <mxCell id="Ewvf6hZ-DNu61a4i_nWs-7" value="" style="endArrow=open;html=1;rounded=0;strokeWidth=4;endFill=0;" parent="1" edge="1">
          <mxGeometry width="50" height="50" relative="1" as="geometry">
            <mxPoint x="800" y="2930" as="sourcePoint" />
            <mxPoint x="425" y="2930" as="targetPoint" />
          </mxGeometry>
        </mxCell>
        <mxCell id="Ewvf6hZ-DNu61a4i_nWs-8" value="" style="endArrow=none;html=1;rounded=0;strokeWidth=4;exitX=0.51;exitY=-0.002;exitDx=0;exitDy=0;exitPerimeter=0;" parent="1" source="x-hWQsG4ySw8Oo5mr3VZ-86" edge="1">
          <mxGeometry width="50" height="50" relative="1" as="geometry">
            <mxPoint x="920" y="4134" as="sourcePoint" />
            <mxPoint x="920" y="3894" as="targetPoint" />
          </mxGeometry>
        </mxCell>
        <mxCell id="Ewvf6hZ-DNu61a4i_nWs-9" value="" style="endArrow=none;html=1;rounded=0;entryX=0.5;entryY=1;entryDx=0;entryDy=0;entryPerimeter=0;startArrow=open;startFill=0;strokeWidth=4;" parent="1" target="x-hWQsG4ySw8Oo5mr3VZ-94" edge="1">
          <mxGeometry width="50" height="50" relative="1" as="geometry">
            <mxPoint x="1860" y="5354" as="sourcePoint" />
            <mxPoint x="2800.363636363636" y="4844.49655737705" as="targetPoint" />
            <Array as="points">
              <mxPoint x="2800" y="5354" />
            </Array>
          </mxGeometry>
        </mxCell>
        <mxCell id="Ewvf6hZ-DNu61a4i_nWs-10" value="" style="endArrow=none;html=1;rounded=0;strokeWidth=4;" parent="1" edge="1">
          <mxGeometry width="50" height="50" relative="1" as="geometry">
            <mxPoint x="423" y="1267" as="sourcePoint" />
            <mxPoint x="2240" y="1270" as="targetPoint" />
          </mxGeometry>
        </mxCell>
        <mxCell id="Ewvf6hZ-DNu61a4i_nWs-11" value="" style="endArrow=none;html=1;rounded=0;strokeWidth=4;" parent="1" edge="1">
          <mxGeometry width="50" height="50" relative="1" as="geometry">
            <mxPoint x="424" y="5570" as="sourcePoint" />
            <mxPoint x="424" y="2940" as="targetPoint" />
          </mxGeometry>
        </mxCell>
        <mxCell id="Ewvf6hZ-DNu61a4i_nWs-14" value="" style="endArrow=none;html=1;rounded=0;strokeWidth=4;exitX=0.504;exitY=-0.003;exitDx=0;exitDy=0;exitPerimeter=0;" parent="1" source="x-hWQsG4ySw8Oo5mr3VZ-65" edge="1">
          <mxGeometry width="50" height="50" relative="1" as="geometry">
            <mxPoint x="4391" y="3730" as="sourcePoint" />
            <mxPoint x="4391" y="3636" as="targetPoint" />
          </mxGeometry>
        </mxCell>
        <mxCell id="Ewvf6hZ-DNu61a4i_nWs-16" value="" style="endArrow=none;html=1;rounded=0;entryX=0.5;entryY=1;entryDx=0;entryDy=0;entryPerimeter=0;strokeWidth=4;startArrow=open;startFill=0;" parent="1" edge="1">
          <mxGeometry width="50" height="50" relative="1" as="geometry">
            <mxPoint x="4738" y="4930" as="sourcePoint" />
            <mxPoint x="5065.772727272728" y="4829.131147540983" as="targetPoint" />
            <Array as="points">
              <mxPoint x="5066" y="4930" />
            </Array>
          </mxGeometry>
        </mxCell>
        <mxCell id="Ewvf6hZ-DNu61a4i_nWs-17" value="" style="endArrow=none;html=1;rounded=0;strokeWidth=4;" parent="1" edge="1">
          <mxGeometry width="50" height="50" relative="1" as="geometry">
            <mxPoint x="4740" y="4930" as="sourcePoint" />
            <mxPoint x="5200" y="5028" as="targetPoint" />
            <Array as="points">
              <mxPoint x="4740" y="5028" />
            </Array>
          </mxGeometry>
        </mxCell>
        <mxCell id="Ewvf6hZ-DNu61a4i_nWs-19" value="" style="endArrow=none;html=1;rounded=0;exitX=0.5;exitY=0;exitDx=0;exitDy=0;strokeWidth=4;" parent="1" source="qz_dlfx-ycx6K2K1K7yL-3" edge="1">
          <mxGeometry width="50" height="50" relative="1" as="geometry">
            <mxPoint x="6830" y="2620" as="sourcePoint" />
            <mxPoint x="6800" y="2540" as="targetPoint" />
          </mxGeometry>
        </mxCell>
        <mxCell id="Ewvf6hZ-DNu61a4i_nWs-22" value="" style="endArrow=open;html=1;rounded=0;exitX=0.5;exitY=1;exitDx=0;exitDy=0;strokeWidth=4;startArrow=none;startFill=0;endFill=0;" parent="1" source="zg1p9sOW_J3XvHUaNTcT-7" edge="1">
          <mxGeometry width="50" height="50" relative="1" as="geometry">
            <mxPoint x="7392.8145454545465" y="4664.523606557376" as="sourcePoint" />
            <mxPoint x="6797" y="4783" as="targetPoint" />
            <Array as="points">
              <mxPoint x="7386" y="4783" />
            </Array>
          </mxGeometry>
        </mxCell>
        <mxCell id="Ewvf6hZ-DNu61a4i_nWs-24" value="" style="endArrow=none;html=1;rounded=0;strokeWidth=4;startArrow=open;startFill=0;" parent="1" edge="1">
          <mxGeometry width="50" height="50" relative="1" as="geometry">
            <mxPoint x="5840" y="5100" as="sourcePoint" />
            <mxPoint x="6493" y="5099" as="targetPoint" />
          </mxGeometry>
        </mxCell>
        <mxCell id="Ewvf6hZ-DNu61a4i_nWs-25" value="" style="endArrow=open;html=1;rounded=0;strokeWidth=4;startArrow=none;startFill=0;endFill=0;" parent="1" edge="1">
          <mxGeometry width="50" height="50" relative="1" as="geometry">
            <mxPoint x="5840" y="5100.999755859375" as="sourcePoint" />
            <mxPoint x="5840" y="3630" as="targetPoint" />
          </mxGeometry>
        </mxCell>
        <mxCell id="Ewvf6hZ-DNu61a4i_nWs-26" value="" style="endArrow=none;html=1;rounded=0;exitX=0.511;exitY=-0.003;exitDx=0;exitDy=0;exitPerimeter=0;strokeWidth=4;" parent="1" source="qz_dlfx-ycx6K2K1K7yL-98" edge="1">
          <mxGeometry width="50" height="50" relative="1" as="geometry">
            <mxPoint x="7600" y="3030" as="sourcePoint" />
            <mxPoint x="7580" y="2930" as="targetPoint" />
          </mxGeometry>
        </mxCell>
        <mxCell id="Ewvf6hZ-DNu61a4i_nWs-27" value="" style="endArrow=none;html=1;rounded=0;strokeWidth=4;startArrow=open;startFill=0;" parent="1" edge="1">
          <mxGeometry width="50" height="50" relative="1" as="geometry">
            <mxPoint x="7910" y="3312" as="sourcePoint" />
            <mxPoint x="8240" y="3270" as="targetPoint" />
            <Array as="points">
              <mxPoint x="8240" y="3312" />
            </Array>
          </mxGeometry>
        </mxCell>
        <mxCell id="Ewvf6hZ-DNu61a4i_nWs-28" value="" style="endArrow=none;html=1;rounded=0;strokeWidth=4;startArrow=open;startFill=0;" parent="1" edge="1">
          <mxGeometry width="50" height="50" relative="1" as="geometry">
            <mxPoint x="7200" y="2567.217433763587" as="sourcePoint" />
            <mxPoint x="7200" y="3350" as="targetPoint" />
          </mxGeometry>
        </mxCell>
        <mxCell id="Ewvf6hZ-DNu61a4i_nWs-30" value="" style="endArrow=none;html=1;rounded=0;strokeWidth=4;startArrow=open;startFill=0;" parent="1" edge="1">
          <mxGeometry width="50" height="50" relative="1" as="geometry">
            <mxPoint x="6800" y="2570" as="sourcePoint" />
            <mxPoint x="7200.313265931372" y="2570" as="targetPoint" />
          </mxGeometry>
        </mxCell>
      </root>
    </mxGraphModel>
  </diagram>
</mxfile>
